<svg width="36" height="48" viewBox="0 0 36 48" fill="none" xmlns="http://www.w3.org/2000/svg">
<path d="M18.492 9.30641C18.45 9.21517 18.3828 9.13788 18.2983 9.0837C18.2137 9.02952 18.1154 9.00072 18.015 9.00072C17.9146 9.00072 17.8163 9.02952 17.7317 9.0837C17.6472 9.13788 17.5799 9.21517 17.538 9.30641L15.39 13.9654C15.3523 14.0465 15.2944 14.1167 15.222 14.1692C15.1495 14.2217 15.0649 14.2548 14.976 14.2654L9.879 14.8714C9.77961 14.8834 9.68574 14.9237 9.60845 14.9873C9.53116 15.0509 9.47367 15.1353 9.44277 15.2305C9.41187 15.3258 9.40884 15.4279 9.43404 15.5247C9.45924 15.6216 9.51162 15.7093 9.585 15.7774L13.353 19.2604C13.4192 19.3214 13.4686 19.3985 13.4965 19.4841C13.5243 19.5697 13.5297 19.6611 13.512 19.7494L12.51 24.7804C12.4904 24.8788 12.4993 24.9807 12.5358 25.0742C12.5723 25.1676 12.6348 25.2486 12.716 25.3076C12.7971 25.3667 12.8934 25.4012 12.9935 25.4072C13.0937 25.4132 13.1934 25.3903 13.281 25.3414L17.76 22.8364C17.838 22.7931 17.9258 22.7703 18.015 22.7703C18.1042 22.7703 18.192 22.7931 18.27 22.8364L22.749 25.3414C23.139 25.5604 23.607 25.2214 23.52 24.7804L22.521 19.7494C22.5033 19.6611 22.5087 19.5697 22.5365 19.4841C22.5644 19.3985 22.6138 19.3214 22.68 19.2604L26.445 15.7774C26.5184 15.7093 26.5708 15.6216 26.596 15.5247C26.6212 15.4279 26.6181 15.3258 26.5872 15.2305C26.5563 15.1353 26.4988 15.0509 26.4215 14.9873C26.3443 14.9237 26.2504 14.8834 26.151 14.8714L21.057 14.2654C20.9676 14.2553 20.8823 14.2224 20.8093 14.1699C20.7363 14.1174 20.678 14.0469 20.64 13.9654L18.492 9.30641ZM36 18.0004C36.0028 20.5333 35.4696 23.0382 34.4355 25.3504C33.4014 27.6626 31.8898 29.7299 30 31.4164V46.5004C29.9999 46.7631 29.9308 47.0211 29.7997 47.2487C29.6686 47.4763 29.48 47.6655 29.2528 47.7973C29.0256 47.9292 28.7677 47.999 28.5051 47.9999C28.2424 48.0008 27.9841 47.9327 27.756 47.8024L18 42.2284L8.244 47.8024C8.01591 47.9327 7.75761 48.0008 7.49493 47.9999C7.23226 47.999 6.97442 47.9292 6.74722 47.7973C6.52001 47.6655 6.33141 47.4763 6.20028 47.2487C6.06915 47.0211 6.00009 46.7631 6 46.5004V31.4164C3.76205 29.4147 2.06037 26.885 1.04992 24.0576C0.039464 21.2302 -0.247659 18.1949 0.214692 15.2282C0.677043 12.2615 1.87418 9.45757 3.69709 7.07175C5.52 4.68592 7.91078 2.79399 10.6517 1.56824C13.3927 0.342497 16.3967 -0.178129 19.3902 0.0537725C22.3838 0.285675 25.2718 1.26274 27.7913 2.89599C30.3107 4.52924 32.3816 6.7668 33.8153 9.40491C35.249 12.043 36.0001 14.9979 36 18.0004ZM18 36.0004C14.8401 36.005 11.7351 35.1739 9 33.5914V43.9174L17.256 39.1984C17.4826 39.069 17.739 39.0009 18 39.0009C18.261 39.0009 18.5174 39.069 18.744 39.1984L27 43.9204V33.5944C24.2646 35.176 21.1597 36.0061 18 36.0004ZM18 33.0004C21.9782 33.0004 25.7935 31.42 28.6066 28.607C31.4196 25.794 33 21.9787 33 18.0004C33 14.0222 31.4196 10.2069 28.6066 7.39381C25.7935 4.58076 21.9782 3.00041 18 3.00041C14.0218 3.00041 10.2064 4.58076 7.3934 7.39381C4.58036 10.2069 3 14.0222 3 18.0004C3 21.9787 4.58036 25.794 7.3934 28.607C10.2064 31.42 14.0218 33.0004 18 33.0004Z" fill="#254412"/>
</svg>
