<svg width="51" height="51" viewBox="0 0 51 51" fill="none" xmlns="http://www.w3.org/2000/svg">
<path d="M29.75 17H9.91667C9.54094 17 9.18061 16.8507 8.91493 16.5851C8.64926 16.3194 8.5 15.9591 8.5 15.5833V9.91667C8.5 9.54094 8.64926 9.18061 8.91493 8.91493C9.18061 8.64926 9.54094 8.5 9.91667 8.5H29.75C30.1257 8.5 30.4861 8.64926 30.7517 8.91493C31.0174 9.18061 31.1667 9.54094 31.1667 9.91667V15.5833C31.1667 15.9591 31.0174 16.3194 30.7517 16.5851C30.4861 16.8507 30.1257 17 29.75 17ZM11.3333 14.1667H28.3333V11.2483H11.3333V14.1667Z" fill="#254412"/>
<path d="M29.75 19.9467H9.91667C9.54094 19.9467 9.18061 20.0959 8.91493 20.3616C8.64926 20.6273 8.5 20.9876 8.5 21.3633V26.9167C8.5 27.2924 8.64926 27.6527 8.91493 27.9184C9.18061 28.1841 9.54094 28.3333 9.91667 28.3333H26.01L31.1667 23.0917V21.3633C31.1667 20.9876 31.0174 20.6273 30.7517 20.3616C30.4861 20.0959 30.1257 19.9467 29.75 19.9467ZM28.3333 25.5H11.3333V22.6667H28.3333V25.5Z" fill="#254412"/>
<path d="M15.6685 44.6391V44.5541L16.1218 42.5849H5.66683V5.66659H34.0002V20.1874L36.8335 17.5099V4.24992C36.8335 3.8742 36.6842 3.51386 36.4186 3.24818C36.1529 2.98251 35.7926 2.83325 35.4168 2.83325H4.25016C3.87444 2.83325 3.5141 2.98251 3.24843 3.24818C2.98275 3.51386 2.8335 3.8742 2.8335 4.24992V43.9166C2.8335 44.2923 2.98275 44.6526 3.24843 44.9183C3.5141 45.184 3.87444 45.3333 4.25016 45.3333H15.5835C15.5952 45.1001 15.6236 44.8681 15.6685 44.6391Z" fill="#254412"/>
<path d="M31.1665 27.1575L30.0615 28.2766C30.3357 28.2201 30.5869 28.0837 30.7836 27.8845C30.9803 27.6853 31.1135 27.4323 31.1665 27.1575Z" fill="#254412"/>
<path d="M8.5 38.165C8.5 38.5407 8.64926 38.901 8.91493 39.1667C9.18061 39.4324 9.54094 39.5816 9.91667 39.5816H16.7733L17.1983 37.74L17.3825 36.9608V36.89H11.3333V34H20.315L23.1483 31.1666H9.91667C9.54094 31.1666 9.18061 31.3159 8.91493 31.5816C8.64926 31.8472 8.5 32.2076 8.5 32.5833V38.165Z" fill="#254412"/>
<path d="M47.4441 23.6158L42.6699 18.8416C42.458 18.6292 42.2063 18.4606 41.9292 18.3456C41.6521 18.2306 41.355 18.1714 41.0549 18.1714C40.7549 18.1714 40.4578 18.2306 40.1806 18.3456C39.9035 18.4606 39.6518 18.6292 39.4399 18.8416L20.0174 38.3775L18.4166 45.1916C18.3566 45.4856 18.3553 45.7885 18.4126 46.083C18.4699 46.3775 18.5848 46.6578 18.7506 46.9078C18.9164 47.1579 19.1299 47.3727 19.3789 47.5401C19.6279 47.7075 19.9075 47.8241 20.2016 47.8833C20.3476 47.898 20.4947 47.898 20.6407 47.8833C20.8143 47.9116 20.9913 47.9116 21.1649 47.8833L28.0357 46.3675L47.4441 26.9166C47.6561 26.706 47.8244 26.4555 47.9392 26.1795C48.054 25.9035 48.1131 25.6076 48.1131 25.3087C48.1131 25.0098 48.054 24.7139 47.9392 24.4379C47.8244 24.162 47.6561 23.9115 47.4441 23.7008V23.6158ZM26.5907 43.7891L21.4057 44.9366L22.6666 39.7941L37.2299 25.075L41.2249 29.07L26.5907 43.7891ZM42.8257 27.4691L38.8307 23.4741L41.0832 21.25L45.1066 25.2733L42.8257 27.4691Z" fill="#254412"/>
</svg>
