<svg width="22" height="22" viewBox="0 0 22 22" fill="none" xmlns="http://www.w3.org/2000/svg">
<path d="M5.5 9.17037e-05H0V5.50009H5.5V9.17037e-05ZM4.03333 4.03342H1.46667V1.46676H4.03333V4.03342ZM5.5 8.06676H0V13.5668H5.5V8.06676ZM4.03333 12.1001H1.46667V9.53343H4.03333V12.1001ZM5.5 16.1334H0V21.6334H5.5V16.1334ZM4.03333 20.1668H1.46667V17.6001H4.03333V20.1668ZM7.33333 0H22V1.46667H7.33333V0ZM7.33333 4.03333H19.0667V5.5H7.33333V4.03333ZM7.33333 8.06667H22V9.53333H7.33333V8.06667ZM7.33333 12.1H19.0667V13.5667H7.33333V12.1ZM7.33333 20.1667H19.0667V21.6333H7.33333V20.1667ZM7.33333 16.1333H22V17.6H7.33333V16.1333Z" fill="#162615"/>
</svg>
