<svg width="50" height="49" viewBox="0 0 50 49" fill="none" xmlns="http://www.w3.org/2000/svg">
<path d="M47.0003 2.58833C46.9288 2.5178 46.8391 2.46143 46.7599 2.42946C42.5627 0.730922 38.1552 -0.0203491 33.7389 0.000418557C33.4802 0.0016627 33.2412 0.135934 33.1096 0.354329C31.4858 3.04627 29.6121 5.24008 28.6593 8.2265C28.3108 6.44345 27.9832 3.99823 27.9884 1.12139C27.9892 0.661633 27.5565 0.320068 27.1002 0.415292C24.7858 0.897924 21.1326 1.99373 19.5326 2.56689C19.3161 2.64441 19.1493 2.81697 19.0819 3.03287C17.9995 6.50154 16.7972 11.0406 16.3711 15.1858C13.5863 6.37684 14.6838 5.9369 13.7813 5.54585C13.5409 5.44173 13.2622 5.4713 13.0501 5.62328C12.7849 5.81334 11.8369 6.54739 10.8886 7.28315C10.4025 7.66013 10.2235 7.75066 10.1417 8.03787C9.25868 11.141 8.46287 15.4289 9.18133 19.391C7.87127 18.2565 6.14431 16.3773 5.54187 13.9761C5.39412 13.3875 4.61033 13.2286 4.23845 13.7177C2.03903 16.6108 0.713932 19.6468 0.300942 23.3178C0.275845 23.5408 0.358267 23.7626 0.523697 23.9176C2.27927 25.5611 4.3114 27.7959 7.1285 28.9118C2.60964 29.5881 1.74216 28.7872 1.23669 29.4833C1.09215 29.6822 1.06022 29.9394 1.15202 30.1664C1.95446 32.1522 3.28659 33.9847 5.11218 35.6132C6.88445 37.3547 10.2058 37.7626 12.0411 35.942C14.1727 33.8269 13.4316 31.7159 14.0974 30.6795C15.1123 29.0992 16.0465 28.4131 17.265 27.1448C18.9199 25.5031 21.4775 25.0556 22.9037 26.4706C22.9037 26.4706 22.9036 26.4705 22.904 26.4709C24.2783 27.8342 23.9735 30.3549 22.2245 32.0899C22.2244 32.0899 22.2244 32.0899 22.2244 32.0899L21.2891 33.0179C21.0628 33.1853 20.2408 34.2339 18.6625 35.2317C18.1529 35.5539 16.4041 35.3695 15.4915 35.6893C14.6834 35.9716 13.9619 36.424 13.347 37.0341C11.4683 38.8979 11.998 42.427 13.688 44.1208C15.3304 45.9327 17.1787 47.2553 19.1822 48.0518C19.736 48.272 20.3141 47.7842 20.1731 47.2144C19.546 44.6796 19.5488 42.8448 19.7473 41.5864C20.6447 44.5194 21.9455 46.7936 23.8266 48.7707C23.983 48.9351 24.2111 49.0211 24.4468 48.9954C25.8575 48.8393 28.3888 48.5304 29.4921 48.2167C31.609 47.6144 33.7259 46.5282 35.7841 44.9882C36.272 44.6231 36.1138 43.864 35.5175 43.7169C33.2905 43.167 31.5027 41.6606 30.3401 40.4088C33.561 41.5717 36.0282 42.5179 39.7048 41.7807C40.1324 41.6951 45.9322 34.2023 45.9392 34.1927C46.3275 33.6595 45.8436 32.9341 45.1888 33.0694C41.3004 33.8745 37.3909 32.7674 34.8326 31.7201C38.4724 31.7394 42.7628 31.428 46.5498 30.265C46.7698 30.1973 46.9448 30.0324 47.0223 29.8195C47.5998 28.2327 48.7039 24.6102 49.1903 22.3152C49.2353 22.1027 49.1801 21.8815 49.0403 21.7134C48.6774 21.2773 48.6124 21.5403 44.2577 21.3778C45.6027 20.8304 46.9342 20.0627 49.2623 19.0645C49.5288 18.9503 49.7014 18.6929 49.7028 18.4078C49.7332 12.1504 48.0425 3.61331 47.0003 2.58833ZM46.9627 7.1374C45.8418 7.89384 41.7404 10.616 38.0322 12.501L46.1896 4.40832C46.483 5.26142 46.7392 6.18285 46.9627 7.1374ZM45.172 3.36717L35.8955 12.5699C37.5074 8.41705 43.1257 2.91324 43.2181 2.72969C43.8779 2.92109 44.5294 3.13346 45.172 3.36717ZM41.6323 2.31567C39.1049 4.92713 33.9659 10.7729 34.0402 14.4106L29.8973 18.5205C31.67 10.975 38.017 3.04417 39.028 1.8162C39.9081 1.94779 40.7763 2.11498 41.6323 2.31567ZM12.853 29.912C12.2532 30.8462 12.2729 32.595 12.0056 33.3457C10.9895 36.2076 8.00887 36.2516 6.11511 34.5595C4.76951 33.3615 3.72116 32.0498 2.98796 30.6489C6.20134 30.6566 9.06102 30.1434 10.7753 29.5591C11.5569 29.3045 11.3788 28.1694 10.5566 28.155C6.80848 28.0892 4.31013 25.5116 1.80563 23.1271C1.93415 22.1721 2.15183 21.1965 2.41765 20.2931C4.33337 22.0524 9.64911 26.6501 14.3039 28.0488C13.7639 28.6284 13.2766 29.2528 12.853 29.912ZM15.4812 26.8642C10.6066 25.8274 4.20271 19.9792 2.94753 18.7969C3.37155 17.7738 3.92107 16.7511 4.59333 15.7371C6.19656 19.4934 9.8494 21.7261 10.0222 21.83C10.6051 22.1811 11.321 21.6243 11.1039 20.9876C10.4296 19.0101 10.2811 16.8347 10.417 14.7249C11.4979 17.9151 13.4638 22.9681 16.0172 26.3325L15.4812 26.8642ZM23.3806 24.9854C21.5013 23.6858 18.9679 24.0732 17.1235 25.3752C13.4369 20.4424 10.9335 11.47 10.9083 11.3788C10.8989 11.3447 10.8863 11.3122 10.8724 11.2807C11.0544 10.3457 11.2703 9.45878 11.4948 8.65066C11.8828 8.35015 12.35 7.98667 12.9256 7.54251C13.7524 12.6784 16.1778 19.2058 16.289 19.5037C16.5786 20.2785 17.7623 20.0381 17.7132 19.2139C17.436 14.5687 18.9848 8.33503 20.3811 3.80022C20.979 3.59513 21.7696 3.34295 22.6346 3.08331C22.3349 4.69438 21.7657 8.20133 21.6554 12.1141C21.6442 12.5119 21.9641 12.8431 22.3699 12.8541C22.7753 12.8651 23.1139 12.5519 23.1251 12.1539C23.2538 7.59448 24.0452 3.48919 24.2218 2.62336C25.0125 2.40238 25.8068 2.19336 26.5274 2.02215C26.6555 7.88111 28.09 11.8981 28.1052 11.9345C28.4015 12.6458 29.4816 12.4647 29.5201 11.6976C29.7383 7.34632 31.9987 4.92952 34.1588 1.4419C35.227 1.44898 36.2814 1.50516 37.3217 1.60661C33.3469 6.63161 28.8936 13.9234 28.0958 20.213C28.0916 20.2465 28.0907 20.2798 28.091 20.3126L25.0706 23.309C23.9355 21.3611 23.2861 18.5681 23.139 14.9872C23.1226 14.5897 22.7807 14.2815 22.3748 14.2963C21.9692 14.3124 21.6535 14.6476 21.6698 15.0452C21.8348 19.0604 22.6196 22.1916 24.0037 24.3673L23.3806 24.9854ZM39.1462 40.4195C35.2168 41.1228 32.7488 39.6417 28.4518 38.2C28.1599 38.1021 27.8365 38.1932 27.6422 38.4284C27.4481 38.6634 27.4243 38.9923 27.5829 39.2518C27.6879 39.4235 29.9456 43.0586 33.7466 44.6461C32.7227 45.3161 31.6902 45.8636 30.6571 46.2862C29.9569 45.5553 27.6859 43.1188 25.7012 40.2566C25.473 39.9275 25.0157 39.8422 24.6799 40.0658C24.3441 40.2894 24.2569 40.7374 24.4852 41.0666C26.235 43.5899 28.1584 45.7496 29.1499 46.8131C28.1349 47.1076 25.7075 47.4016 24.6543 47.5221C22.6318 45.2965 21.3679 42.6225 20.575 38.9105C20.5038 38.5772 20.204 38.3376 19.8552 38.3376C19.3898 38.3376 19.2106 38.7182 19.2013 38.7278C18.6861 39.5446 17.6686 41.8024 18.4344 46.1029C17.1288 45.3857 15.9027 44.3972 14.7759 43.1514C13.2625 41.491 13.3483 39.0837 14.3933 38.047C14.8516 37.5924 15.3872 37.2559 15.9861 37.0467C16.7013 36.7958 18.4663 37.0708 19.4598 36.4429C20.1177 36.027 20.741 35.5491 21.32 35.0202C21.6517 36.1021 22.1797 37.2868 22.8998 38.5593C23.0966 38.9068 23.5441 39.0331 23.8992 38.8399C24.2543 38.6469 24.3824 38.2083 24.1856 37.8605C23.3341 36.3562 22.7781 35.0067 22.5272 33.8404L23.0584 33.3133C27.4102 36.5205 36.9379 38.2638 40.4224 38.8128C40.3274 38.9323 39.4065 40.0914 39.1462 40.4195ZM45.7589 28.9951C41.9825 30.0898 37.0852 30.4972 31.564 30.1735C30.8128 30.1264 30.4872 31.0984 31.1225 31.4987C31.3881 31.6662 37.181 35.2608 43.6544 34.7406C43.0212 35.5406 42.205 36.5688 41.4571 37.5105C39.1333 37.1664 28.4971 35.4469 24.023 32.2209C25.4596 30.2244 25.6298 27.7211 24.4164 26.0087L25.04 25.3901C30.3414 28.6968 40.3145 27.8834 46.4859 26.745C46.2226 27.6087 45.9668 28.3986 45.7589 28.9951ZM38.9329 20.9512C38.1543 20.9896 37.9667 22.0402 38.686 22.3354C39.0475 22.4836 42.2794 22.8567 47.554 22.8874C47.3806 23.6057 47.1687 24.398 46.9448 25.1868C45.3004 25.5149 32.3486 27.9385 26.1015 24.3371L29.1326 21.3301C29.1561 21.3248 32.5956 21.0856 37.825 18.5607C38.1893 18.3849 38.3391 17.953 38.1596 17.596C37.9801 17.239 37.5394 17.0918 37.1752 17.2682C34.9382 18.3482 32.8421 19.115 30.9186 19.5583L35.1894 15.3214C39.1494 13.9685 45.1175 10.1141 47.2883 8.66635C47.4126 9.31072 47.523 9.96179 47.6206 10.6105C46.6751 11.3693 43.5937 13.7624 39.7316 15.9314C39.0813 16.2966 39.3449 17.277 40.0978 17.277C40.2218 17.277 40.3475 17.2463 40.4627 17.1815C43.7587 15.3304 46.4501 13.3622 47.8457 12.2833C48.099 14.4091 48.2173 16.4127 48.2319 17.9362C43.8854 19.8446 43.3628 20.7327 38.9329 20.9512Z" fill="white"/>
</svg>
