<svg width="37" height="56" viewBox="0 0 37 56" fill="none" xmlns="http://www.w3.org/2000/svg">
<path d="M12.1291 50.5742H15.8258C16.218 50.5742 16.5359 50.2218 16.5359 49.7869C16.5359 49.3524 16.218 49 15.8258 49H12.1291C10.955 49 10 50.0593 10 51.3611V53.6393C10 54.9411 10.955 56 12.1291 56H24.8705C26.0446 56 27 54.9411 27 53.6393V51.3611C27 50.0593 26.0446 49 24.8705 49H18.665C18.2731 49 17.9553 49.3524 17.9553 49.7869C17.9553 50.2218 18.2731 50.5742 18.665 50.5742H24.8705C25.262 50.5742 25.5802 50.927 25.5802 51.3611V53.6393C25.5802 54.0734 25.262 54.4262 24.8705 54.4262H12.1291C11.7376 54.4262 11.4194 54.0734 11.4194 53.6393V51.3611C11.4194 50.927 11.7376 50.5742 12.1291 50.5742Z" fill="white"/>
<path d="M10.8892 27.8001C9.58998 25.1204 6.48328 24.0268 6.35159 23.9816C5.9816 23.8546 5.57842 24.0513 5.44968 24.4225C5.40431 24.5543 4.34526 27.6846 5.64482 30.3647C6.82007 32.7885 8.54642 34.3239 9.9548 34.3239C10.0787 34.3239 10.2005 34.3113 10.3189 34.2873C10.2075 34.9211 10.1112 35.559 10.0352 36.2013C9.98874 36.5929 10.2669 36.9481 10.6568 36.9948C10.6856 36.9981 10.714 37 10.742 37C11.0969 37 11.4038 36.7333 11.4469 36.3703C11.5037 35.8924 11.5727 35.4171 11.6498 34.9441C12.0489 35.1689 12.5532 35.3204 13.1504 35.3871C13.3846 35.413 13.6292 35.426 13.8826 35.426C14.8266 35.426 15.8879 35.2471 16.944 34.9044C19.7685 33.988 21.2823 31.0522 21.3454 30.9278C21.5225 30.5777 21.3849 30.1495 21.037 29.9694C20.9135 29.9053 17.9761 28.4136 15.1508 29.33C14.2179 29.6327 13.3924 30.0254 12.7096 30.4695C13.1799 28.9666 13.7594 27.4967 14.4481 26.0661C14.7211 26.311 15.0653 26.5317 15.478 26.7218C16.4445 27.1667 17.716 27.4167 19.0587 27.426C19.0717 27.4264 19.0838 27.4264 19.0964 27.4264C21.9139 27.426 24.1426 25.24 24.2367 25.1467C24.5145 24.87 24.5178 24.4202 24.2437 24.1394C24.1507 24.0442 21.933 21.8079 19.0975 21.7883C19.0717 21.7879 19.0455 21.7879 19.0193 21.7879C18.2173 21.7879 17.4416 21.875 16.7414 22.0383C17.4921 20.9048 18.3166 19.8012 19.2115 18.7325C19.3889 19.1141 19.7338 19.5416 20.3745 19.959C21.1776 20.4821 22.2757 20.8714 23.4676 21.0555C23.7313 21.0963 23.9925 21.1144 24.2489 21.1144C26.4474 21.1144 28.2918 19.7697 28.3781 19.706C28.6931 19.473 28.761 19.0281 28.5304 18.7107C28.46 18.6136 26.7768 16.3317 24.2511 15.9412C23.4104 15.8116 22.5841 15.7938 21.8464 15.8838C22.0065 15.7271 22.1677 15.5712 22.3307 15.4163C23.2894 14.5065 24.2389 13.6934 25.1438 12.9748C25.2747 13.3641 25.5713 13.8179 26.1833 14.2813C26.8978 14.8233 27.8963 15.26 28.9945 15.5108C29.366 15.5956 29.7348 15.6312 30.093 15.6312C31.9883 15.6312 33.5896 14.6299 33.6693 14.5795C33.9998 14.3695 34.099 13.9309 33.8917 13.5975C33.8323 13.5026 32.4122 11.2604 30.0786 10.7273C29.5681 10.6106 29.0609 10.5413 28.5747 10.5165C30.3605 9.3678 31.549 8.80214 31.5719 8.79139C31.9275 8.62432 32.0809 8.19943 31.9149 7.84233C31.7489 7.48522 31.3258 7.33075 30.9698 7.49782C30.871 7.54412 29.6031 8.14609 27.7244 9.36039C27.8602 8.86326 27.9546 8.32501 28.0007 7.76861C28.1992 5.37335 26.4994 3.33704 26.4271 3.25147C26.1737 2.95215 25.727 2.91474 25.4278 3.16775C25.3422 3.24035 23.3307 4.9666 23.1319 7.36187C23.0386 8.48874 23.1515 9.57672 23.4499 10.4243C23.6967 11.1248 24.0227 11.5419 24.3418 11.7882C23.479 12.4713 22.5745 13.2396 21.6545 14.0965C21.7099 13.7001 21.7412 13.2878 21.7464 12.8673C21.777 10.3013 19.8113 8.25944 19.7275 8.17387C19.4534 7.89345 19.0053 7.88789 18.7245 8.16164C18.639 8.24536 16.6249 10.2391 16.5943 12.8055C16.5799 14.0161 16.7824 15.1678 17.1645 16.0487C17.5272 16.8844 17.9717 17.3085 18.3708 17.5186C17.4567 18.5892 16.6112 19.6949 15.8366 20.8311C15.8491 20.2935 15.8181 19.7308 15.7418 19.1615C15.3637 16.3395 12.8741 14.4132 12.7682 14.3324C12.4565 14.095 12.0124 14.155 11.7745 14.4669C11.6937 14.5728 9.7995 17.0911 10.1776 19.9135C10.3569 21.2496 10.7649 22.4847 11.3263 23.3915C11.9305 24.3662 12.6723 24.8914 13.4378 24.8963C12.6923 26.3773 12.0589 27.8998 11.5395 29.4582C11.3746 28.9103 11.1566 28.3513 10.8892 27.8001ZM10.1016 32.8659C9.64605 33.0896 8.11041 32.188 6.92335 29.7398C6.22175 28.2928 6.40545 26.5966 6.60058 25.6427C7.46782 26.0743 8.90608 26.9711 9.61101 28.4254C10.1333 29.5027 10.4487 30.6407 10.476 31.5479C10.5011 32.3736 10.2901 32.774 10.1016 32.8659ZM15.5876 30.6888C16.0915 30.5255 16.6086 30.4621 17.1077 30.4621C18.1203 30.4621 19.061 30.7233 19.6722 30.9426C19.1251 31.7442 18.0392 33.0485 16.5068 33.5457C15.3711 33.9139 14.2047 34.068 13.3068 33.968C12.4894 33.8772 12.1242 33.6112 12.0596 33.4112C11.9036 32.9263 13.0076 31.526 15.5876 30.6888ZM32.2041 13.7301C31.511 14.0283 30.4003 14.3676 29.3099 14.1187C28.4168 13.9146 27.5891 13.5586 27.0398 13.1418C26.5883 12.7999 26.4551 12.5176 26.4773 12.4198C26.499 12.3224 26.741 12.1257 27.2954 12.0135C27.5614 11.9598 27.8624 11.9327 28.1844 11.9327C28.6784 11.9327 29.2217 11.9957 29.7629 12.1194C30.8466 12.3669 31.705 13.1592 32.2041 13.7301ZM24.5488 7.48004C24.641 6.36909 25.2998 5.40557 25.793 4.8288C26.1844 5.47966 26.6754 6.53949 26.5835 7.65044C26.4142 9.68971 25.6012 10.731 25.3057 10.7051C25.2065 10.6969 24.9789 10.4839 24.7904 9.94865C24.5609 9.29667 24.4728 8.39687 24.5488 7.48004ZM19.0875 23.2163C20.5756 23.2263 21.9094 24.0668 22.6402 24.6332C21.9087 25.1863 20.5815 25.9983 19.0964 25.9983C19.0871 25.9983 19.0776 25.9983 19.0683 25.9983C17.9388 25.9905 16.8462 25.7812 16.0701 25.4238C15.5201 25.1704 15.2287 24.8888 15.1519 24.684C15.2593 24.4858 15.3688 24.2887 15.4802 24.092C16.0354 23.6642 17.2402 23.2159 19.0134 23.2159C19.0381 23.2159 19.0628 23.2159 19.0875 23.2163ZM22.8021 17.2559C23.199 17.2559 23.6166 17.2882 24.0345 17.3526C25.2688 17.5434 26.2858 18.3795 26.8635 18.964C26.1401 19.3474 24.9243 19.8361 23.6834 19.6445C21.4786 19.3037 20.4136 18.3065 20.4645 17.9742C20.4837 17.8494 20.736 17.6012 21.3521 17.4297C21.767 17.3145 22.2661 17.2559 22.8021 17.2559ZM18.0155 12.8225C18.0307 11.5686 18.7127 10.4398 19.2081 9.7838C19.6873 10.4491 20.3395 11.589 20.3244 12.8503C20.3126 13.8486 20.1248 14.8125 19.809 15.4949C19.5405 16.0753 19.2568 16.285 19.1303 16.285C19.1299 16.285 19.1296 16.285 19.1288 16.285C19.003 16.2835 18.7231 16.0676 18.4678 15.4786C18.1686 14.7888 18.0037 13.8209 18.0155 12.8225ZM11.5864 19.7231C11.3883 18.2417 12.0297 16.7977 12.4857 15.9916C13.1371 16.6455 14.1327 17.8627 14.3323 19.3519C14.6731 21.8938 13.9516 23.403 13.4857 23.466C13.0231 23.529 11.9272 22.265 11.5864 19.7231Z" fill="white"/>
<path d="M34.8413 0H2.15875C0.968487 0 0 0.969742 0 2.16154V7.35867C0 7.75644 0.322207 8.07906 0.719458 8.07906C1.11708 8.07906 1.43892 7.75644 1.43892 7.35867V2.16154C1.43892 1.76415 1.76187 1.44078 2.15875 1.44078H34.8413C35.2381 1.44078 35.5611 1.76415 35.5611 2.16154V46.8385C35.5611 47.2358 35.2381 47.5592 34.8413 47.5592H2.15875C1.76187 47.5592 1.43892 47.2358 1.43892 46.8385V10.2406C1.43892 9.84247 1.11708 9.51984 0.719458 9.51984C0.322207 9.51984 0 9.84247 0 10.2406V46.8385C0 48.0303 0.968487 49 2.15875 49H34.8413C36.0315 49 37 48.0303 37 46.8385V2.16154C37 0.969742 36.0315 0 34.8413 0Z" fill="white"/>
</svg>
