<svg width="65" height="46" viewBox="0 0 65 46" fill="none" xmlns="http://www.w3.org/2000/svg">
<g clip-path="url(#clip0_113_134)">
<path d="M64.8626 22.3792L52.0405 0.469501C51.9771 0.360884 51.8934 0.26612 51.7942 0.190646C51.6949 0.115172 51.5821 0.0604719 51.4621 0.0296805C51.3408 -0.00376686 51.2141 -0.0115125 51.0898 0.00691911C50.9655 0.0253507 50.8461 0.0695681 50.7391 0.136861L44.6154 3.88088C44.4013 4.01282 44.2471 4.22629 44.1868 4.47438C44.1264 4.72248 44.1649 4.98491 44.2937 5.20403L44.3841 5.35926H20.6015L20.6955 5.20403C20.7591 5.09532 20.8011 4.97485 20.8192 4.84951C20.8373 4.72418 20.8311 4.59642 20.8008 4.47355C20.7706 4.35068 20.717 4.23511 20.6431 4.13341C20.5692 4.03172 20.4765 3.94591 20.3701 3.88088L14.2464 0.136861C14.1396 0.0691591 14.0202 0.0247007 13.8959 0.00625928C13.7715 -0.0121821 13.6447 -0.00420801 13.5234 0.0296805C13.4035 0.0604719 13.2906 0.115172 13.1914 0.190646C13.0921 0.26612 13.0084 0.360884 12.9451 0.469501L0.122907 22.3792C-0.00589725 22.5983 -0.0443614 22.8607 0.0159638 23.1088C0.0762889 23.3569 0.230469 23.5704 0.444635 23.7023L6.56832 27.4464C6.71436 27.5368 6.88201 27.5841 7.05272 27.5831C7.12963 27.5845 7.20633 27.5745 7.28046 27.5535C7.40115 27.5245 7.51473 27.4705 7.61421 27.3949C7.71368 27.3192 7.79694 27.2235 7.85885 27.1137L8.19504 26.5408L8.44085 27.0472C7.88722 27.3491 7.41055 27.7795 7.04911 28.3038C6.61957 28.9308 6.36635 29.6662 6.31697 30.43C6.26759 31.1938 6.42393 31.9569 6.76901 32.6362C7.11409 33.3156 7.6347 33.8852 8.27425 34.2832C8.9138 34.6812 9.64782 34.8924 10.3965 34.8937C10.7723 34.889 11.1457 34.8318 11.5063 34.7237C11.51 34.861 11.5208 34.9979 11.5388 35.134C11.6305 35.7131 11.8419 36.2656 12.1592 36.7544C12.4764 37.2432 12.892 37.6572 13.3783 37.9686C13.8646 38.28 14.4103 38.4817 14.9789 38.5601C15.5476 38.6385 16.1261 38.5919 16.6757 38.4234C16.6795 38.5618 16.6903 38.7 16.7082 38.8373C16.8986 39.9305 17.5052 40.9018 18.3949 41.5385C19.2846 42.1752 20.3849 42.4253 21.4546 42.2339C21.5883 42.2081 21.7149 42.16 21.845 42.123C21.8487 42.2615 21.8595 42.3997 21.8775 42.537C22.0134 43.3569 22.385 44.1169 22.9449 44.7201C23.5048 45.3233 24.2277 45.7424 25.0214 45.924C25.8152 46.1056 26.6438 46.0414 27.4018 45.7397C28.1597 45.4379 28.8126 44.9123 29.2773 44.2297L29.7906 43.4906L32.2741 45.2646C32.8759 45.6975 33.5808 45.9563 34.3145 46.0137C35.0482 46.0712 35.7834 45.9251 36.4427 45.5909C37.1019 45.2567 37.6607 44.7469 38.0602 44.115C38.4597 43.4832 38.6849 42.7529 38.7123 42.0011L38.9183 42.1452C39.521 42.5767 40.2262 42.8342 40.9599 42.8907C41.6935 42.9472 42.4285 42.8006 43.0876 42.4663C43.7467 42.132 44.3056 41.6224 44.7054 40.991C45.1053 40.3595 45.3315 39.6296 45.3601 38.878L45.6276 39.0739C46.3178 39.5538 47.1355 39.8054 47.9701 39.7946C48.2124 39.7941 48.4542 39.773 48.6931 39.7318C49.6152 39.5672 50.454 39.0839 51.0693 38.3627C51.6846 37.6415 52.0389 36.7261 52.073 35.7697L52.2429 35.8916C52.6833 36.2076 53.1803 36.4317 53.7055 36.551C54.2306 36.6704 54.7737 36.6827 55.3035 36.5873C55.8333 36.4919 56.3395 36.2906 56.7932 35.9949C57.2469 35.6992 57.639 35.315 57.9473 34.8642C58.57 33.9557 58.8148 32.8317 58.6277 31.7389C58.4406 30.6461 57.8371 29.6739 56.9496 29.0356L55.9374 28.2964L56.7977 26.5408L57.1303 27.1063C57.1922 27.2162 57.2755 27.3118 57.375 27.3875C57.4744 27.4631 57.588 27.5171 57.7087 27.5462C57.7828 27.5671 57.8595 27.5771 57.9364 27.5757C58.1071 27.5767 58.2748 27.5294 58.4208 27.439L64.5445 23.695C64.7561 23.5625 64.9081 23.3501 64.9677 23.1038C65.0272 22.8576 64.9895 22.5972 64.8626 22.3792V22.3792ZM6.73822 25.299L2.23402 22.5418L14.091 2.28422L18.5952 5.0525L6.73822 25.299ZM9.14215 32.5616C8.66259 32.216 8.33634 31.6904 8.23473 31.0997C8.13312 30.5089 8.26442 29.901 8.59991 29.4089V29.4089C8.76774 29.1627 8.98219 28.9534 9.23056 28.7934C9.47894 28.6334 9.75618 28.526 10.0459 28.4775C10.1749 28.4556 10.3055 28.4445 10.4363 28.4443C10.7847 28.4441 11.1282 28.528 11.439 28.6891C11.7497 28.8501 12.019 29.0838 12.2248 29.3712C12.4307 29.6586 12.5674 29.9915 12.6238 30.343C12.6802 30.6945 12.6548 31.0547 12.5495 31.3943C12.4443 31.7339 12.2622 32.0433 12.0181 32.2974C11.774 32.5516 11.4747 32.7433 11.1445 32.857C10.8143 32.9707 10.4626 33.0032 10.1178 32.9519C9.77304 32.9006 9.44497 32.7668 9.16023 32.5616H9.14215ZM14.3115 36.2575C13.8319 35.912 13.5057 35.3864 13.4041 34.7956C13.3025 34.2048 13.4338 33.597 13.7693 33.1049L15.4719 30.6212C15.8251 30.1789 16.3288 29.8895 16.8819 29.8112C17.4351 29.7328 17.9968 29.8712 18.4543 30.1986C18.9118 30.5261 19.2313 31.0183 19.3486 31.5765C19.4659 32.1348 19.3724 32.7177 19.0868 33.2084L17.3842 35.6995C17.0469 36.187 16.5355 36.5193 15.9605 36.6244C15.3855 36.7295 14.7932 36.5991 14.3115 36.2612V36.2575ZM21.1365 40.3231C20.557 40.425 19.9616 40.2876 19.4811 39.9412C19.0006 39.5947 18.6742 39.0674 18.5735 38.4751C18.5223 38.1831 18.5278 37.8836 18.5899 37.5938C18.6519 37.304 18.7692 37.0295 18.935 36.7861L20.6376 34.2987L22.7343 31.2384C22.9021 30.9922 23.1166 30.7829 23.3649 30.6229C23.6133 30.4629 23.8905 30.3555 24.1802 30.307C24.3092 30.2837 24.4397 30.2714 24.5707 30.2701C24.9756 30.2705 25.3726 30.3845 25.7184 30.5997C26.0643 30.815 26.3458 31.1231 26.5322 31.4906C26.7187 31.858 26.8029 32.2708 26.7757 32.6838C26.7485 33.0969 26.611 33.4943 26.3781 33.833L22.5752 39.3769C22.411 39.6279 22.1989 39.8423 21.9517 40.0074C21.7045 40.1725 21.4272 40.2849 21.1365 40.3379V40.3231ZM27.7373 43.121C27.38 43.551 26.8786 43.8293 26.3312 43.9014C25.7838 43.9734 25.2298 43.8339 24.7776 43.5103C24.3255 43.1867 24.0077 42.7022 23.8865 42.1517C23.7653 41.6012 23.8495 41.0242 24.1224 40.5338L25.825 38.0501C25.9908 37.8059 26.2024 37.5977 26.4475 37.4379C26.6927 37.278 26.9664 37.1695 27.2529 37.1187C27.3816 37.0936 27.5124 37.0812 27.6433 37.0817C28.0482 37.0822 28.4453 37.1962 28.7911 37.4114C29.137 37.6266 29.4185 37.9347 29.6049 38.3022C29.7913 38.6697 29.8756 39.0824 29.8484 39.4955C29.8212 39.9085 29.6837 40.306 29.4508 40.6447L28.8037 41.5908L27.7373 43.121ZM56.4037 33.7849C56.2373 34.0289 56.0254 34.2369 55.7801 34.3968C55.5349 34.5568 55.2611 34.6657 54.9746 34.7172C54.6881 34.7687 54.3944 34.7619 54.1105 34.697C53.8266 34.6322 53.558 34.5106 53.3202 34.3393L50.3306 32.1994L40.3968 25.0883C40.1919 24.9485 39.9417 24.8961 39.6995 24.9424C39.4574 24.9887 39.2426 25.13 39.101 25.3361C38.9594 25.5422 38.9022 25.7967 38.9417 26.0453C38.9812 26.2939 39.1142 26.5168 39.3123 26.6665L49.2462 33.7776C49.5077 33.9367 49.7342 34.1492 49.9117 34.4019C50.0893 34.6546 50.2139 34.942 50.2778 35.2462C50.3417 35.5504 50.3436 35.8648 50.2833 36.1697C50.2229 36.4747 50.1017 36.7636 49.9272 37.0185C49.7527 37.2734 49.5287 37.4887 49.2691 37.651C49.0095 37.8133 48.7199 37.9192 48.4185 37.9619C48.1171 38.0046 47.8103 37.9833 47.5173 37.8992C47.2243 37.8152 46.9514 37.6703 46.7157 37.4735L36.7819 30.3625C36.7248 30.3286 36.6642 30.3013 36.6011 30.2812C36.4062 30.1925 36.1872 30.1758 35.9816 30.2337C35.7759 30.2917 35.5963 30.4208 35.4733 30.599C35.4018 30.7023 35.351 30.819 35.3238 30.9424C35.2966 31.0658 35.2935 31.1935 35.3146 31.3182C35.3358 31.4428 35.3808 31.562 35.4471 31.6688C35.5134 31.7756 35.5997 31.868 35.701 31.9407L38.4411 33.9032L42.5405 36.8378C42.9731 37.1989 43.2561 37.7139 43.3327 38.2795C43.4094 38.8451 43.274 39.4193 42.9538 39.8871C42.6335 40.3549 42.1521 40.6815 41.6061 40.8014C41.0601 40.9214 40.4899 40.8258 40.01 40.5338L33.167 35.6329C32.9621 35.4931 32.7118 35.4407 32.4697 35.487C32.2276 35.5333 32.0127 35.6746 31.8711 35.8807C31.7295 36.0868 31.6723 36.3413 31.7118 36.5899C31.7513 36.8385 31.8844 37.0614 32.0825 37.2111L35.8998 39.9461C36.3324 40.3072 36.6155 40.8222 36.6921 41.3878C36.7688 41.9534 36.6334 42.5276 36.3131 42.9954C35.9929 43.4632 35.5115 43.7898 34.9655 43.9097C34.4195 44.0297 33.8493 43.9341 33.3694 43.6421L30.8859 41.8643L30.9944 41.7054C31.4122 41.09 31.6605 40.3711 31.7135 39.624C31.7664 38.8769 31.622 38.1289 31.2954 37.4584C30.9688 36.7878 30.4719 36.2193 29.8568 35.8124C29.2417 35.4054 28.5309 35.1749 27.7988 35.1451L27.9253 34.9603C28.5485 34.0501 28.7925 32.9241 28.6037 31.83C28.4149 30.7359 27.8087 29.7633 26.9186 29.1262C26.0284 28.489 24.9271 28.2395 23.857 28.4326C22.7869 28.6256 21.8356 29.2454 21.2124 30.1555L21.0859 30.344C20.8261 29.6821 20.4042 29.0997 19.8608 28.6526C19.3173 28.2056 18.6705 27.909 17.9825 27.7913C17.2946 27.6737 16.5886 27.7389 15.9324 27.9808C15.2762 28.2226 14.6919 28.633 14.2356 29.1724C13.9315 28.3715 13.3913 27.6873 12.6898 27.2144C11.9883 26.7416 11.1603 26.5036 10.3206 26.5335L9.36266 24.582L19.4845 7.27008H24.6502C24.4363 7.51603 24.244 7.78069 24.0754 8.06101L17.8288 18.7276C17.702 18.9456 17.6642 19.2059 17.7238 19.4522C17.7833 19.6985 17.9353 19.9108 18.1469 20.0433C19.2334 20.7287 20.4852 21.0909 21.7619 21.0893C22.3248 21.0883 22.8856 21.0176 23.432 20.8786C24.3218 20.6578 25.1595 20.2573 25.8958 19.7007C26.6321 19.144 27.2521 18.4425 27.7193 17.6373L30.0075 13.7343H31.6306C31.8574 15.5192 32.7103 17.1592 34.0308 18.3495C35.3512 19.5398 37.0495 20.1995 38.8099 20.206H41.6656L55.8579 30.6323C56.3339 30.977 56.6581 31.4995 56.7602 32.0868C56.8624 32.674 56.7343 33.2787 56.4037 33.7702V33.7849ZM54.3866 27.1802L42.5188 18.4615C42.4901 18.4448 42.4598 18.4312 42.4284 18.4208C42.373 18.3851 42.3135 18.3565 42.2513 18.3358C42.1909 18.3182 42.1293 18.3058 42.0669 18.2988C42.0347 18.2909 42.0021 18.2847 41.9693 18.2804H38.8099C37.3861 18.2784 36.0212 17.699 35.0148 16.6693C34.0084 15.6397 33.4426 14.2438 33.4417 12.7882C33.4407 12.533 33.3409 12.2885 33.1641 12.1084C32.9872 11.9283 32.7478 11.8272 32.4982 11.8272H29.4617C29.2984 11.8268 29.1379 11.8699 28.996 11.9522C28.854 12.0345 28.7354 12.1532 28.6519 12.2966L26.0962 16.6689C25.4854 17.7074 24.5375 18.4937 23.4177 18.8909C22.298 19.288 21.0774 19.2708 19.9689 18.8421L25.6841 9.0811C26.0025 8.5393 26.4523 8.09067 26.9899 7.77859C27.5276 7.46652 28.1349 7.30155 28.7531 7.29965H45.5119L55.6337 24.6042L54.3866 27.1802ZM58.2582 25.3138L46.4012 5.0525L50.9054 2.2953L62.7624 22.5529L58.2582 25.3138Z" fill="#254412"/>
</g>
<defs>
<clipPath id="clip0_113_134">
<rect width="65" height="46" fill="white"/>
</clipPath>
</defs>
</svg>
