<svg width="164" height="139" viewBox="0 0 164 139" fill="none" xmlns="http://www.w3.org/2000/svg">
<g clip-path="url(#clip0_269_2645)">
<path d="M69.7959 36.9065C68.5212 38.175 66.7967 38.8857 65 38.8829C60.5618 38.8829 58.2453 35.7746 58.2276 32.212C58.2099 28.6495 60.4839 25.3921 65 25.3921C66.7974 25.3891 68.5225 26.1013 69.7959 27.3721L69.0875 27.9753C68.5489 27.4382 67.9095 27.0134 67.2061 26.7253C66.5027 26.4372 65.7493 26.2916 64.9894 26.2969C61.1498 26.2969 59.1769 29.0114 59.1946 32.1765C59.2336 35.2672 61.1888 37.9426 64.9894 37.9426C66.5285 37.9431 68.0069 37.3408 69.1088 36.2643L69.7959 36.9065Z" fill="white"/>
<path d="M71.3756 34.0678C71.3756 31.112 73.5009 29.2278 76.0972 29.2278C78.6935 29.2278 80.8187 31.112 80.8187 34.0678C80.8187 37.0236 78.7112 38.8368 76.0972 38.8368C73.4832 38.8368 71.3756 37.0378 71.3756 34.0678ZM79.9155 34.0678C79.9155 31.6585 78.2047 30.0936 76.0972 30.0936C73.9897 30.0936 72.2789 31.6585 72.2789 34.0678C72.2789 36.4772 73.9897 37.932 76.0972 37.932C78.2047 37.932 79.9155 36.4913 79.9155 34.0678Z" fill="white"/>
<path d="M83.8472 29.4088V31.0659C84.5556 29.785 85.859 29.2563 87.159 29.2385C89.6384 29.2385 91.3527 30.7643 91.3527 33.344V38.7162H90.4354V33.3582C90.4354 31.2469 89.1354 30.115 87.1236 30.1363C85.2038 30.154 83.8684 31.6053 83.8684 33.5249V38.7091H82.9475V29.4017L83.8472 29.4088Z" fill="white"/>
<path d="M94.7212 38.7162V30.2924H92.8192V29.4833H94.7212V28.653C94.7212 26.8079 95.4544 25.4595 97.5017 25.4595C98.1701 25.4643 98.8184 25.6887 99.3472 26.0982L98.8938 26.776C98.4792 26.4808 97.9855 26.3176 97.477 26.3076C96.3116 26.3076 95.6316 27.0172 95.6316 28.6424V29.4727H98.6989V30.2817H95.6316V38.7055L94.7212 38.7162Z" fill="white"/>
<path d="M100.325 34.0678C100.308 33.4386 100.418 32.8125 100.649 32.227C100.879 31.6414 101.225 31.1084 101.666 30.6599C102.107 30.2113 102.633 29.8565 103.214 29.6165C103.795 29.3766 104.418 29.2564 105.046 29.2633C107.66 29.2633 110.005 30.8637 109.651 34.5007H101.281C101.336 35.4564 101.762 36.3526 102.469 36.9972C103.175 37.6419 104.106 37.9838 105.06 37.9497C106.282 37.9497 107.713 37.4601 108.408 36.5304L109.066 37.0556C108.163 38.2443 106.548 38.8475 105.06 38.8475C102.432 38.8475 100.325 37.0201 100.325 34.0678ZM108.808 33.6917C108.808 31.3924 107.285 30.1114 105.046 30.1114C103.127 30.1114 101.472 31.4101 101.267 33.6917H108.808Z" fill="white"/>
<path d="M112.892 29.4088L112.927 31.0659C113.512 29.8027 114.829 29.313 116.012 29.313C116.716 29.2981 117.409 29.4879 118.007 29.8595L117.592 30.6117C117.116 30.3227 116.569 30.1728 116.012 30.1788C115.195 30.1844 114.413 30.515 113.838 31.0978C113.264 31.6806 112.944 32.4681 112.949 33.2872V38.7162H112.042V29.4088H112.892Z" fill="white"/>
<path d="M118.874 34.0678C118.857 33.4388 118.967 32.8128 119.197 32.2272C119.427 31.6417 119.773 31.1086 120.213 30.66C120.654 30.2115 121.18 29.8565 121.761 29.6166C122.341 29.3766 122.964 29.2564 123.592 29.2633C126.206 29.2633 128.551 30.8637 128.197 34.5007H119.827C119.882 35.4564 120.309 36.3526 121.015 36.9972C121.721 37.6419 122.652 37.9838 123.607 37.9497C124.832 37.9497 126.26 37.4601 126.957 36.5304L127.613 37.0556C126.713 38.2443 125.094 38.8475 123.607 38.8475C120.978 38.8475 118.874 37.0201 118.874 34.0678ZM127.354 33.6917C127.354 31.3924 125.831 30.1114 123.592 30.1114C121.676 30.1114 120.018 31.4101 119.813 33.6917H127.354Z" fill="white"/>
<path d="M131.477 29.4088V31.0659C132.185 29.785 133.489 29.2563 134.785 29.2385C137.265 29.2385 138.979 30.7643 138.979 33.344V38.7162H138.058V33.3582C138.058 31.2469 136.762 30.115 134.75 30.1363C132.83 30.154 131.495 31.6053 131.495 33.5249V38.7091H130.574V29.4017L131.477 29.4088Z" fill="white"/>
<path d="M149.007 37.4139C148.562 37.8592 148.034 38.2118 147.453 38.4512C146.872 38.6905 146.249 38.812 145.62 38.8084C143.006 38.8084 140.842 36.9988 140.842 34.0607C140.842 31.1227 142.932 29.313 145.62 29.313C146.888 29.316 148.103 29.8166 149.007 30.7075L148.404 31.2895C147.659 30.5662 146.658 30.1671 145.62 30.1788C143.495 30.1788 141.745 31.5556 141.745 34.0607C141.745 36.5659 143.516 37.9426 145.62 37.9426C146.657 37.9385 147.651 37.5255 148.387 36.793L149.007 37.4139Z" fill="white"/>
<path d="M152.109 26.375C152.096 26.5633 152.013 26.7396 151.875 26.8684C151.737 26.9971 151.556 27.0687 151.367 27.0687C151.179 27.0687 150.998 26.9971 150.86 26.8684C150.722 26.7396 150.638 26.5633 150.625 26.375C150.638 26.1867 150.722 26.0104 150.86 25.8816C150.998 25.7528 151.179 25.6812 151.367 25.6812C151.556 25.6812 151.737 25.7528 151.875 25.8816C152.013 26.0104 152.096 26.1867 152.109 26.375ZM150.887 29.3698V38.7162H151.808V29.3698H150.887Z" fill="white"/>
<path d="M163.377 29.4088V38.7162H162.456V36.7362C162.065 37.3946 161.508 37.9381 160.841 38.3119C160.174 38.6857 159.42 38.8766 158.655 38.8652C158.027 38.8751 157.403 38.7572 156.821 38.5187C156.24 38.2802 155.713 37.926 155.272 37.4776C154.831 37.0292 154.485 36.4958 154.256 35.9097C154.026 35.3236 153.918 34.697 153.937 34.0678C153.916 33.4396 154.024 32.8138 154.253 32.2287C154.482 31.6437 154.828 31.1117 155.27 30.6654C155.712 30.2192 156.24 29.8681 156.822 29.6337C157.404 29.3993 158.028 29.2865 158.655 29.3024C159.424 29.2788 160.184 29.4664 160.854 29.8448C161.524 30.2232 162.078 30.778 162.456 31.4491V29.4159L163.377 29.4088ZM154.876 34.0607C154.876 36.3991 156.569 37.9639 158.673 37.9639C163.848 37.9639 163.848 30.1823 158.673 30.1823C158.163 30.1682 157.655 30.2595 157.181 30.4506C156.708 30.6417 156.279 30.9285 155.921 31.293C155.563 31.6576 155.284 32.0921 155.101 32.5695C154.918 33.0469 154.835 33.557 154.858 34.0678L154.876 34.0607Z" fill="white"/>
<path d="M57.5829 50.0355V41.5939H58.2205V50.0355H57.5829Z" fill="white"/>
<path d="M60.5441 44.0636V45.1281C60.7598 44.7591 61.0713 44.4556 61.4456 44.25C61.8199 44.0444 62.2428 43.9444 62.6693 43.9607C64.2561 43.9607 65.3507 44.9365 65.3507 46.59V50.0354H64.7627V46.6113C64.7627 45.2594 63.9303 44.539 62.6374 44.5497C62.3559 44.5469 62.0768 44.6018 61.8172 44.7111C61.5577 44.8204 61.3232 44.9816 61.1281 45.185C60.933 45.3884 60.7815 45.6296 60.6829 45.8938C60.5843 46.158 60.5407 46.4396 60.5547 46.7213V50.0354H59.9738V44.0777L60.5441 44.0636Z" fill="white"/>
<path d="M67.993 42.2681V44.0635H70.0155V44.5603H67.993V48.1903C67.993 48.9958 68.163 49.5635 69.091 49.5635C69.4095 49.5504 69.7213 49.468 70.0049 49.3222L70.2103 49.8048C69.8645 49.9881 69.482 50.0912 69.091 50.1064C67.8265 50.1064 67.4156 49.3577 67.4156 48.1903V44.5603H66.1511V44.0635H67.4121V42.3284L67.993 42.2681Z" fill="white"/>
<path d="M71.0392 47.0442C71.0287 46.6415 71.0993 46.2408 71.2468 45.8661C71.3943 45.4914 71.6156 45.1503 71.8976 44.8631C72.1796 44.576 72.5165 44.3487 72.8881 44.1949C73.2597 44.041 73.6584 43.9638 74.0605 43.9677C75.7359 43.9677 77.2271 44.9932 76.9969 47.3209H71.6413C71.677 47.9324 71.9501 48.5057 72.4022 48.9181C72.8543 49.3306 73.4494 49.5495 74.0605 49.528C74.8433 49.528 75.7572 49.2122 76.1857 48.6232L76.6072 48.978C76.2916 49.3479 75.8977 49.6427 75.4541 49.841C75.0105 50.0392 74.5284 50.136 74.0428 50.1241C73.6389 50.1365 73.237 50.0648 72.8622 49.9134C72.4875 49.7621 72.1482 49.5344 71.8659 49.2449C71.5835 48.9554 71.3642 48.6103 71.2219 48.2315C71.0796 47.8526 71.0174 47.4483 71.0392 47.0442ZM76.4691 46.8029C76.4691 45.3303 75.495 44.5106 74.0605 44.5106C73.4382 44.5 72.8364 44.7339 72.3842 45.1624C71.932 45.5909 71.6653 46.1798 71.6413 46.8029H76.4691Z" fill="white"/>
<path d="M79.1008 44.0636L79.1256 45.1281C79.3121 44.771 79.5974 44.4754 79.9473 44.2765C80.2972 44.0777 80.6969 43.984 81.0985 44.0068C81.5489 43.999 81.9919 44.1222 82.3737 44.3616L82.108 44.8442C81.8036 44.6601 81.4541 44.5643 81.0985 44.5674C80.8394 44.5688 80.5832 44.6213 80.3443 44.7219C80.1055 44.8226 79.8888 44.9693 79.7066 45.1538C79.5244 45.3384 79.3802 45.557 79.2823 45.7974C79.1845 46.0377 79.1348 46.295 79.1362 46.5545V50.0355H78.5447V44.0778L79.1008 44.0636Z" fill="white"/>
<path d="M83.8259 44.0636V45.1281C84.0416 44.7591 84.3532 44.4556 84.7274 44.25C85.1017 44.0444 85.5246 43.9444 85.9511 43.9607C87.5415 43.9607 88.636 44.9365 88.636 46.59V50.0354H88.0445V46.6113C88.0445 45.2594 87.2157 44.539 85.9193 44.5497C85.6379 44.5474 85.359 44.6027 85.0997 44.7121C84.8403 44.8216 84.606 44.9829 84.4111 45.1862C84.2161 45.3894 84.0646 45.6304 83.9658 45.8944C83.867 46.1583 83.823 46.4397 83.8365 46.7213V50.0354H83.2486V44.0777L83.8259 44.0636Z" fill="white"/>
<path d="M95.8866 44.0635V50.0354H95.2986V48.7687C95.0486 49.1903 94.6919 49.5383 94.2647 49.7775C93.8374 50.0168 93.3546 50.1388 92.8652 50.1312C92.4626 50.1382 92.0628 50.0631 91.6901 49.9105C91.3173 49.758 90.9794 49.5311 90.6969 49.2437C90.4143 48.9564 90.193 48.6145 90.0463 48.2388C89.8997 47.8631 89.8308 47.4615 89.8438 47.0584C89.8312 46.6563 89.9006 46.2559 90.0476 45.8816C90.1947 45.5073 90.4163 45.1669 90.6991 44.8813C90.9818 44.5957 91.3198 44.3709 91.6922 44.2205C92.0646 44.0701 92.4638 43.9974 92.8652 44.0068C93.3571 43.9924 93.8436 44.1126 94.2724 44.3546C94.7012 44.5966 95.0559 44.9511 95.2986 45.38V44.0777L95.8866 44.0635ZM90.4354 47.0442C90.4228 47.3695 90.4766 47.694 90.5937 47.9978C90.7107 48.3016 90.8883 48.5782 91.1158 48.8108C91.3433 49.0433 91.6158 49.2269 91.9166 49.3502C92.2175 49.4736 92.5402 49.5341 92.8652 49.528C96.177 49.528 96.177 44.5603 92.8652 44.5603C92.5398 44.5527 92.2163 44.6122 91.9148 44.7349C91.6133 44.8577 91.3401 45.0412 91.1123 45.2741C90.8845 45.507 90.7069 45.7843 90.5905 46.0888C90.474 46.3932 90.4212 46.7184 90.4354 47.0442Z" fill="white"/>
<path d="M102.496 49.1909C102.211 49.4755 101.873 49.7008 101.501 49.8537C101.129 50.0065 100.73 50.084 100.328 50.0816C99.9244 50.0989 99.5212 50.0324 99.1441 49.8863C98.7671 49.7401 98.4242 49.5174 98.1372 49.2322C97.8501 48.9469 97.625 48.6053 97.4761 48.2288C97.3271 47.8523 97.2575 47.449 97.2715 47.0442C97.2715 45.1636 98.6104 44.0032 100.328 44.0032C101.14 44.0043 101.919 44.3256 102.496 44.8974L102.11 45.27C101.635 44.8096 100.999 44.5547 100.339 44.5603C100.009 44.5424 99.6782 44.5944 99.3693 44.7129C99.0604 44.8313 98.7798 45.0137 98.5459 45.248C98.312 45.4823 98.13 45.7634 98.0117 46.0728C97.8935 46.3823 97.8416 46.7133 97.8595 47.0442C97.8416 47.3751 97.8935 47.706 98.0117 48.0155C98.13 48.325 98.312 48.606 98.5459 48.8404C98.7798 49.0747 99.0604 49.257 99.3693 49.3755C99.6782 49.494 100.009 49.546 100.339 49.528C101.003 49.5257 101.64 49.2604 102.11 48.79L102.496 49.1909Z" fill="white"/>
<path d="M104.483 42.1226C104.483 42.2487 104.433 42.3697 104.344 42.4588C104.255 42.548 104.134 42.5981 104.008 42.5981C103.883 42.5981 103.762 42.548 103.673 42.4588C103.584 42.3697 103.534 42.2487 103.534 42.1226C103.534 41.9965 103.584 41.8756 103.673 41.7864C103.762 41.6972 103.883 41.6471 104.008 41.6471C104.134 41.6471 104.255 41.6972 104.344 41.7864C104.433 41.8756 104.483 41.9965 104.483 42.1226ZM103.7 44.0423V50.0355H104.292V44.0565L103.7 44.0423Z" fill="white"/>
<path d="M105.833 47.0548C105.812 46.6486 105.875 46.2425 106.019 45.862C106.163 45.4815 106.383 45.1349 106.667 44.8439C106.951 44.553 107.292 44.324 107.668 44.1714C108.044 44.0188 108.448 43.9458 108.854 43.9571C109.26 43.9463 109.663 44.0197 110.039 44.1725C110.416 44.3253 110.756 44.5543 111.04 44.8451C111.323 45.1359 111.544 45.4823 111.688 45.8626C111.832 46.2428 111.896 46.6487 111.875 47.0548C111.895 47.4586 111.83 47.8621 111.686 48.2395C111.541 48.6169 111.32 48.96 111.035 49.2471C110.751 49.5341 110.41 49.7587 110.035 49.9067C109.659 50.0546 109.257 50.1226 108.854 50.1064C108.451 50.1232 108.048 50.0555 107.672 49.9078C107.297 49.76 106.956 49.5354 106.671 49.2483C106.387 48.9611 106.166 48.6178 106.021 48.2401C105.877 47.8624 105.813 47.4588 105.833 47.0548ZM111.294 47.0548C111.312 46.7244 111.262 46.3938 111.147 46.0835C111.032 45.7733 110.855 45.49 110.626 45.2514C110.397 45.0128 110.122 44.8239 109.817 44.6965C109.512 44.569 109.184 44.5058 108.854 44.5106C108.523 44.5053 108.195 44.5682 107.89 44.6954C107.585 44.8226 107.309 45.0114 107.08 45.2501C106.85 45.4888 106.672 45.7722 106.557 46.0827C106.442 46.3932 106.392 46.7241 106.41 47.0548C106.392 47.3827 106.443 47.7108 106.558 48.018C106.674 48.3251 106.853 48.6046 107.083 48.8385C107.313 49.0724 107.59 49.2555 107.895 49.3761C108.2 49.4966 108.526 49.552 108.854 49.5387C109.181 49.5521 109.508 49.4967 109.813 49.3761C110.117 49.2555 110.394 49.0723 110.623 48.8384C110.853 48.6044 111.032 48.3249 111.147 48.0177C111.263 47.7105 111.313 47.3826 111.294 47.0548Z" fill="white"/>
<path d="M113.813 44.0636V45.1281C114.029 44.7594 114.34 44.4561 114.715 44.2506C115.089 44.045 115.512 43.9448 115.938 43.9607C117.528 43.9607 118.623 44.9365 118.623 46.59V50.0355H118.031V46.6113C118.031 45.2594 117.203 44.5391 115.906 44.5497C115.625 44.5474 115.346 44.6027 115.087 44.7122C114.828 44.8217 114.594 44.983 114.399 45.1863C114.204 45.3897 114.053 45.6307 113.955 45.8946C113.857 46.1586 113.813 46.4399 113.827 46.7213V50.0355H113.236V44.0778L113.813 44.0636Z" fill="white"/>
<path d="M125.873 44.0636V50.0355H125.285V48.7687C125.036 49.1903 124.679 49.5383 124.252 49.7776C123.824 50.0168 123.342 50.1388 122.852 50.1313C122.45 50.1377 122.05 50.0623 121.678 49.9095C121.306 49.7567 120.968 49.5298 120.686 49.2425C120.404 48.9551 120.183 48.6134 120.037 48.238C119.89 47.8626 119.821 47.4612 119.834 47.0584C119.822 46.6566 119.891 46.2565 120.038 45.8824C120.185 45.5084 120.406 45.1682 120.688 44.8827C120.971 44.5971 121.308 44.3722 121.68 44.2216C122.052 44.071 122.451 43.9979 122.852 44.0068C123.344 43.992 123.831 44.1121 124.26 44.3541C124.688 44.5961 125.043 44.9508 125.285 45.38V44.0778L125.873 44.0636ZM120.422 47.0442C120.41 47.3696 120.464 47.6941 120.581 47.9978C120.698 48.3016 120.875 48.5783 121.103 48.8108C121.33 49.0434 121.603 49.2269 121.904 49.3503C122.204 49.4736 122.527 49.5341 122.852 49.5281C126.164 49.5281 126.164 44.5603 122.852 44.5603C122.527 44.5527 122.203 44.6122 121.902 44.735C121.6 44.8578 121.327 45.0413 121.099 45.2742C120.871 45.507 120.694 45.7843 120.577 46.0888C120.461 46.3933 120.408 46.7184 120.422 47.0442Z" fill="white"/>
<path d="M128.066 41.5797V50.0355H127.478V41.5939L128.066 41.5797Z" fill="white"/>
<path d="M137.109 45.1493C136.856 44.9281 136.561 44.759 136.243 44.6518C135.924 44.5446 135.588 44.5015 135.253 44.5248C134.328 44.5248 133.436 44.8619 133.461 45.6213C133.485 46.3806 134.523 46.5722 135.267 46.7071C136.33 46.888 137.782 47.0619 137.722 48.4529C137.686 49.7693 136.326 50.117 135.278 50.117C134.229 50.117 133.195 49.7196 132.678 48.9248L133.11 48.538C133.367 48.8678 133.698 49.1317 134.077 49.3082C134.456 49.4846 134.871 49.5685 135.288 49.5529C135.997 49.5529 137.109 49.3577 137.144 48.4174C137.169 47.5622 136.181 47.3919 135.207 47.2358C134.049 47.0442 132.908 46.8277 132.894 45.6319C132.88 44.4361 134.049 43.9571 135.253 43.9677C136.068 43.9326 136.864 44.2193 137.47 44.7661L137.109 45.1493Z" fill="white"/>
<path d="M138.756 47.0548C138.736 46.6487 138.8 46.2428 138.943 45.8626C139.087 45.4823 139.308 45.1359 139.591 44.8451C139.875 44.5543 140.216 44.3253 140.592 44.1725C140.968 44.0197 141.371 43.9463 141.777 43.9571C142.183 43.9458 142.587 44.0188 142.963 44.1714C143.34 44.324 143.681 44.553 143.964 44.8439C144.248 45.1349 144.469 45.4815 144.612 45.862C144.756 46.2425 144.819 46.6486 144.799 47.0548C144.819 47.4588 144.754 47.8624 144.61 48.2401C144.466 48.6178 144.244 48.9611 143.96 49.2483C143.676 49.5354 143.335 49.76 142.959 49.9078C142.583 50.0555 142.181 50.1232 141.777 50.1064C141.374 50.1226 140.972 50.0546 140.596 49.9067C140.221 49.7587 139.88 49.5341 139.596 49.2471C139.312 48.96 139.09 48.6169 138.946 48.2395C138.801 47.8621 138.736 47.4586 138.756 47.0548ZM144.221 47.0548C144.239 46.7241 144.189 46.3932 144.074 46.0827C143.959 45.7722 143.781 45.4888 143.552 45.2501C143.322 45.0114 143.047 44.8226 142.741 44.6954C142.436 44.5682 142.108 44.5053 141.777 44.5106C141.447 44.5058 141.119 44.569 140.814 44.6965C140.509 44.8239 140.234 45.0128 140.005 45.2514C139.776 45.49 139.599 45.7733 139.484 46.0835C139.369 46.3938 139.319 46.7244 139.337 47.0548C139.318 47.3826 139.368 47.7105 139.484 48.0177C139.599 48.3249 139.778 48.6044 140.008 48.8384C140.238 49.0723 140.514 49.2555 140.819 49.3761C141.123 49.4967 141.45 49.5521 141.777 49.5387C142.105 49.552 142.432 49.4966 142.736 49.3761C143.041 49.2555 143.318 49.0724 143.548 48.8385C143.778 48.6046 143.957 48.3251 144.073 48.018C144.189 47.7108 144.239 47.3827 144.221 47.0548Z" fill="white"/>
<path d="M146.754 41.5797V45.3658C146.99 44.9195 147.35 44.5506 147.789 44.3028C148.229 44.055 148.73 43.9387 149.233 43.9677C150.894 43.9677 152.219 45.0784 152.219 47.0442C152.219 49.01 150.909 50.1171 149.247 50.1171C148.745 50.1257 148.249 49.9984 147.813 49.7486C147.377 49.4988 147.016 49.1358 146.768 48.6977V50.0106H146.191V41.5691L146.754 41.5797ZM146.754 47.03C146.736 47.3581 146.786 47.6863 146.901 47.994C147.017 48.3016 147.194 48.5821 147.423 48.8178C147.651 49.0534 147.926 49.2391 148.23 49.3632C148.533 49.4872 148.859 49.547 149.187 49.5387C150.523 49.5387 151.617 48.6942 151.617 47.0548C151.617 45.4155 150.523 44.5461 149.187 44.5461C148.862 44.5386 148.538 44.598 148.236 44.7207C147.935 44.8435 147.661 45.027 147.433 45.2598C147.205 45.4926 147.027 45.7698 146.91 46.0743C146.793 46.3788 146.74 46.7041 146.754 47.03Z" fill="white"/>
<path d="M154.192 44.0636L154.213 45.1281C154.401 44.771 154.687 44.4755 155.037 44.2767C155.388 44.0779 155.788 43.9842 156.19 44.0068C156.64 43.9995 157.083 44.1228 157.465 44.3616L157.199 44.8442C156.895 44.66 156.545 44.5642 156.19 44.5674C155.931 44.5688 155.674 44.6213 155.436 44.7219C155.197 44.8225 154.98 44.9693 154.798 45.1538C154.616 45.3383 154.471 45.557 154.374 45.7973C154.276 46.0377 154.226 46.2949 154.228 46.5545V50.0354H153.636V44.0777L154.192 44.0636Z" fill="white"/>
<path d="M158.021 47.0442C158.01 46.6417 158.08 46.2411 158.227 45.8664C158.374 45.4917 158.595 45.1505 158.877 44.8633C159.159 44.5761 159.496 44.3488 159.867 44.1949C160.238 44.041 160.637 43.9638 161.039 43.9677C162.714 43.9677 164.205 44.9932 163.979 47.3209H158.62C158.655 47.9324 158.928 48.5057 159.381 48.9181C159.833 49.3306 160.428 49.5495 161.039 49.528C161.822 49.528 162.739 49.2122 163.182 48.6232L163.603 48.978C163.288 49.3479 162.894 49.6427 162.45 49.841C162.007 50.0392 161.524 50.136 161.039 50.1242C160.634 50.1391 160.23 50.0692 159.853 49.9189C159.477 49.7687 159.135 49.5414 158.851 49.2515C158.567 48.9616 158.347 48.6156 158.204 48.2355C158.061 47.8555 157.999 47.4497 158.021 47.0442ZM163.447 46.8029C163.447 45.3303 162.473 44.5106 161.039 44.5106C160.416 44.5 159.815 44.7339 159.363 45.1624C158.91 45.5909 158.644 46.1798 158.62 46.8029H163.447Z" fill="white"/>
<path d="M0.035427 134.206C0.035427 132.858 1.31763 132.432 2.45817 132.432C3.59871 132.432 4.88801 132.911 4.89509 134.277C4.89509 135.572 3.59518 136.094 2.4759 136.094C1.55497 136.094 0.478182 136.321 0.478182 137.407V138.39H4.83132V138.862H1.52588e-05V137.442C1.52588e-05 136.023 1.29284 135.668 2.45817 135.668C3.27992 135.668 4.44525 135.363 4.44525 134.295C4.44525 133.227 3.32243 132.876 2.45817 132.876C1.59391 132.876 0.513594 133.163 0.513594 134.213L0.035427 134.206Z" fill="white"/>
<path d="M5.90457 134.93C5.90457 131.609 10.7466 131.619 10.7466 134.93V136.442C10.7466 139.752 5.90457 139.763 5.90457 136.442V134.93ZM6.38274 136.442C6.38274 136.959 6.588 137.456 6.95335 137.822C7.31869 138.188 7.81419 138.393 8.33086 138.393C8.84753 138.393 9.34307 138.188 9.70842 137.822C10.0738 137.456 10.279 136.959 10.279 136.442V134.93C10.279 132.233 6.38274 132.226 6.38274 134.93V136.442Z" fill="white"/>
<path d="M12.8399 133.039V134.387H14.3559V134.76H12.8399V137.481C12.8399 138.088 12.9674 138.514 13.6617 138.514C13.9009 138.503 14.1351 138.441 14.3488 138.333L14.5011 138.688C14.2416 138.824 13.9547 138.901 13.6617 138.911C12.7124 138.911 12.4078 138.351 12.4078 137.474V134.753H11.4479V134.38H12.3972V133.078L12.8399 133.039Z" fill="white"/>
<path d="M15.801 132.524V135.221C15.963 134.94 16.198 134.708 16.4812 134.549C16.7644 134.391 17.0851 134.313 17.4091 134.323C18.6559 134.323 19.2793 135.129 19.2793 136.296V138.858H18.8436V136.296C18.8436 135.374 18.4115 134.749 17.4091 134.749C17.1942 134.747 16.9811 134.789 16.783 134.872C16.5848 134.955 16.4057 135.078 16.2568 135.234C16.1078 135.389 15.9921 135.573 15.9168 135.775C15.8415 135.976 15.8081 136.191 15.8187 136.406V138.858H15.376V132.524H15.801Z" fill="white"/>
<path d="M23.0056 138.858V132.524H23.4908V138.858H23.0056Z" fill="white"/>
<path d="M25.2264 134.387V135.196C25.3879 134.92 25.621 134.693 25.901 134.538C26.181 134.384 26.4974 134.308 26.8168 134.32C28.0105 134.32 28.8322 135.054 28.8322 136.293V138.872H28.3894V136.3C28.3894 135.288 27.766 134.746 26.7991 134.753C26.588 134.751 26.3789 134.792 26.1844 134.874C25.9899 134.957 25.8141 135.077 25.6679 135.23C25.5217 135.382 25.4081 135.563 25.334 135.761C25.2599 135.959 25.2269 136.17 25.2371 136.381V138.865H24.7943V134.394L25.2264 134.387Z" fill="white"/>
<path d="M30.8158 133.039V134.387H32.3459V134.76H30.8264V137.481C30.8264 138.088 30.9539 138.514 31.6481 138.514C31.8874 138.503 32.1217 138.442 32.3353 138.333L32.4911 138.688C32.2302 138.824 31.9422 138.9 31.6481 138.911C30.7024 138.911 30.3942 138.351 30.3942 137.474V134.753H29.445V134.38H30.3942V133.078L30.8158 133.039Z" fill="white"/>
<path d="M33.1004 136.615C33.0923 136.313 33.1451 136.013 33.2557 135.732C33.3663 135.45 33.5324 135.194 33.744 134.979C33.9557 134.764 34.2085 134.593 34.4875 134.478C34.7664 134.363 35.0656 134.306 35.3673 134.309C36.6247 134.309 37.744 135.075 37.5704 136.821H33.5538C33.5838 137.279 33.7894 137.707 34.1275 138.016C34.4656 138.325 34.9099 138.49 35.3673 138.478C35.6682 138.488 35.9676 138.432 36.2452 138.315C36.5227 138.198 36.7717 138.023 36.9754 137.801L37.2906 138.053C37.0543 138.33 36.759 138.552 36.4261 138.7C36.0933 138.849 35.7315 138.921 35.3673 138.911C35.0645 138.922 34.7627 138.87 34.481 138.759C34.1992 138.647 33.9437 138.478 33.7307 138.262C33.5176 138.046 33.3515 137.788 33.243 137.505C33.1345 137.222 33.086 136.919 33.1004 136.615ZM37.1737 136.435C37.1737 135.331 36.4441 134.714 35.3673 134.714C34.8993 134.702 34.4459 134.877 34.106 135.199C33.7662 135.522 33.5677 135.966 33.5538 136.435H37.1737Z" fill="white"/>
<path d="M39.1325 134.387V135.182C39.273 134.915 39.4872 134.693 39.7497 134.544C40.0121 134.395 40.3118 134.325 40.613 134.341C40.9515 134.335 41.2846 134.426 41.5729 134.604L41.3746 134.958C41.1447 134.82 40.881 134.749 40.613 134.753C40.221 134.755 39.846 134.914 39.5705 135.193C39.2949 135.473 39.1412 135.85 39.1431 136.243V138.851H38.7216V134.38L39.1325 134.387Z" fill="white"/>
<path d="M42.6886 134.387V135.196C42.8501 134.92 43.0832 134.693 43.3632 134.538C43.6432 134.384 43.9597 134.308 44.279 134.32C45.4727 134.32 46.2945 135.054 46.2945 136.293V138.872H45.8517V136.3C45.8517 135.288 45.2283 134.746 44.2613 134.753C44.0503 134.751 43.8411 134.792 43.6466 134.874C43.4521 134.957 43.2764 135.077 43.1302 135.23C42.984 135.382 42.8703 135.563 42.7963 135.761C42.7222 135.959 42.6891 136.17 42.6993 136.381V138.865H42.2636V134.394L42.6886 134.387Z" fill="white"/>
<path d="M51.7386 134.387V138.858H51.2958V137.907C51.1084 138.223 50.841 138.484 50.5207 138.663C50.2004 138.843 49.8386 138.934 49.4717 138.929C49.1696 138.934 48.8697 138.877 48.5901 138.763C48.3105 138.648 48.057 138.478 47.845 138.262C47.6331 138.047 47.4671 137.79 47.357 137.508C47.2469 137.226 47.1951 136.925 47.2048 136.623C47.1955 136.321 47.2477 136.021 47.3582 135.74C47.4686 135.459 47.635 135.204 47.8471 134.99C48.0592 134.776 48.3126 134.607 48.592 134.494C48.8713 134.382 49.1706 134.327 49.4717 134.334C49.8404 134.323 50.2053 134.413 50.5267 134.594C50.8482 134.775 51.1141 135.041 51.2958 135.363V134.387H51.7386ZM47.6475 136.615C47.6368 136.86 47.6764 137.105 47.7637 137.334C47.8509 137.563 47.9842 137.772 48.1551 137.948C48.326 138.123 48.531 138.262 48.7574 138.355C48.9839 138.448 49.2269 138.494 49.4717 138.489C51.9511 138.489 51.9511 134.753 49.4717 134.753C49.227 134.745 48.9834 134.788 48.7563 134.879C48.5292 134.971 48.3234 135.108 48.152 135.283C47.9806 135.459 47.8473 135.667 47.7605 135.897C47.6736 136.126 47.6352 136.371 47.6475 136.615Z" fill="white"/>
<path d="M53.7682 133.039V134.387H55.2877V134.76H53.7682V137.481C53.7682 138.088 53.8957 138.514 54.5899 138.514C54.8292 138.503 55.0635 138.442 55.2771 138.333L55.4294 138.688C55.1699 138.824 54.883 138.901 54.5899 138.911C53.6442 138.911 53.336 138.351 53.336 137.474V134.753H52.3867V134.38H53.336V133.078L53.7682 133.039Z" fill="white"/>
<path d="M56.8923 132.929C56.8923 133.023 56.8549 133.113 56.7885 133.18C56.7221 133.246 56.632 133.284 56.5381 133.284C56.4441 133.284 56.354 133.246 56.2876 133.18C56.2212 133.113 56.1839 133.023 56.1839 132.929C56.1839 132.835 56.2212 132.744 56.2876 132.678C56.354 132.611 56.4441 132.574 56.5381 132.574C56.632 132.574 56.7221 132.611 56.7885 132.678C56.8549 132.744 56.8923 132.835 56.8923 132.929ZM56.3043 134.369V138.858H56.747V134.369H56.3043Z" fill="white"/>
<path d="M57.9053 136.616C57.89 136.311 57.9378 136.006 58.0456 135.721C58.1535 135.435 58.319 135.176 58.5319 134.957C58.7447 134.739 59.0003 134.567 59.2826 134.453C59.5648 134.338 59.8677 134.283 60.1722 134.291C60.4778 134.281 60.7822 134.335 61.0662 134.448C61.3501 134.562 61.6074 134.733 61.8218 134.952C62.0362 135.17 62.203 135.431 62.3117 135.717C62.4204 136.004 62.4686 136.31 62.4532 136.616C62.4683 136.919 62.4201 137.221 62.3117 137.505C62.2034 137.788 62.0372 138.046 61.8239 138.261C61.6106 138.476 61.3548 138.645 61.0728 138.756C60.7908 138.866 60.4889 138.917 60.1863 138.904C59.8826 138.919 59.5791 138.87 59.2955 138.76C59.0118 138.65 58.7542 138.482 58.5394 138.266C58.3245 138.051 58.1571 137.793 58.0479 137.508C57.9387 137.224 57.8901 136.92 57.9053 136.616ZM62.0034 136.616C62.0165 136.368 61.9787 136.12 61.8923 135.887C61.8059 135.655 61.6727 135.442 61.501 135.263C61.3293 135.084 61.1228 134.942 60.8943 134.847C60.6657 134.751 60.4199 134.703 60.1722 134.706C59.9242 134.703 59.678 134.75 59.449 134.846C59.22 134.941 59.013 135.083 58.841 135.262C58.6689 135.441 58.5355 135.653 58.4488 135.886C58.3622 136.119 58.3243 136.367 58.3374 136.616C58.326 136.861 58.3654 137.106 58.4534 137.335C58.5413 137.564 58.6757 137.772 58.8482 137.947C59.0206 138.121 59.2274 138.258 59.4553 138.348C59.6832 138.439 59.9273 138.48 60.1722 138.471C60.4168 138.48 60.6605 138.438 60.888 138.347C61.1155 138.257 61.3217 138.12 61.4938 137.945C61.6659 137.771 61.8 137.563 61.8877 137.334C61.9754 137.105 62.0148 136.86 62.0034 136.616Z" fill="white"/>
<path d="M63.8913 134.387V135.196C64.0525 134.92 64.2851 134.693 64.5644 134.539C64.8437 134.385 65.1594 134.309 65.4782 134.32C66.6718 134.32 67.4935 135.054 67.4935 136.293V138.872H67.0579V136.3C67.0579 135.288 66.4345 134.746 65.4675 134.753C65.2565 134.751 65.0473 134.792 64.8528 134.874C64.6583 134.957 64.4826 135.078 64.3364 135.23C64.1902 135.382 64.0765 135.563 64.0024 135.761C63.9284 135.959 63.8953 136.17 63.9055 136.381V138.865H63.4627V134.394L63.8913 134.387Z" fill="white"/>
<path d="M72.9377 134.387V138.858H72.4949V137.907C72.3074 138.223 72.0401 138.484 71.7198 138.663C71.3995 138.843 71.0377 138.934 70.6708 138.929C70.3687 138.934 70.0688 138.877 69.7892 138.763C69.5096 138.648 69.2561 138.478 69.0442 138.262C68.8322 138.047 68.6662 137.79 68.5561 137.508C68.446 137.226 68.3943 136.925 68.4039 136.623C68.3947 136.321 68.4469 136.021 68.5573 135.74C68.6677 135.459 68.8341 135.204 69.0462 134.99C69.2583 134.776 69.5117 134.607 69.7911 134.494C70.0704 134.382 70.3697 134.327 70.6708 134.334C71.0396 134.322 71.4046 134.412 71.7261 134.594C72.0476 134.775 72.3135 135.041 72.4949 135.363V134.387H72.9377ZM68.8467 136.623C68.836 136.868 68.8755 137.112 68.9627 137.341C69.05 137.57 69.1833 137.779 69.3542 137.955C69.5251 138.13 69.7301 138.269 69.9565 138.362C70.183 138.455 70.426 138.501 70.6708 138.496C73.1502 138.496 73.1502 134.76 70.6708 134.76C70.4267 134.752 70.1838 134.795 69.9572 134.886C69.7305 134.977 69.5251 135.114 69.3538 135.288C69.1825 135.462 69.049 135.67 68.9618 135.899C68.8745 136.127 68.8353 136.371 68.8467 136.615V136.623Z" fill="white"/>
<path d="M74.5812 132.524V138.858H74.142V132.524H74.5812Z" fill="white"/>
<path d="M84.4599 135.725C84.4422 137.364 83.4398 139 81.219 139C78.9981 139 77.9674 137.4 77.9674 135.736C77.9674 134.071 79.03 132.396 81.219 132.396C83.4079 132.396 84.4776 134.071 84.4599 135.725ZM79.1469 135.753C79.1752 136.793 79.7349 137.907 81.226 137.907C82.7172 137.907 83.2733 136.786 83.291 135.743C83.3087 134.699 82.7137 133.482 81.226 133.482C79.7384 133.482 79.1008 134.685 79.1398 135.753H79.1469Z" fill="white"/>
<path d="M86.4541 133.138C86.442 133.302 86.3683 133.456 86.2477 133.568C86.1271 133.681 85.9687 133.743 85.8042 133.743C85.6396 133.743 85.4811 133.681 85.3606 133.568C85.24 133.456 85.1663 133.302 85.1542 133.138C85.1663 132.974 85.24 132.82 85.3606 132.708C85.4811 132.596 85.6396 132.533 85.8042 132.533C85.9687 132.533 86.1271 132.596 86.2477 132.708C86.3683 132.82 86.442 132.974 86.4541 133.138ZM85.2534 134.376V138.858H86.3549V134.376H85.2534Z" fill="white"/>
<path d="M88.4412 132.531V138.858H87.3467V132.531H88.4412Z" fill="white"/>
<path d="M94.2927 136.992H92.5039V138.858H91.3102V132.524C92.3056 132.524 93.2973 132.524 94.2927 132.524C97.3813 132.514 97.3884 136.992 94.2927 136.992ZM92.5039 135.899H94.2927C94.4452 135.907 94.5978 135.885 94.7413 135.832C94.8848 135.78 95.016 135.698 95.1271 135.593C95.2381 135.488 95.3265 135.361 95.3869 135.221C95.4473 135.08 95.4785 134.929 95.4785 134.776C95.4785 134.623 95.4473 134.471 95.3869 134.331C95.3265 134.19 95.2381 134.063 95.1271 133.958C95.016 133.853 94.8848 133.772 94.7413 133.719C94.5978 133.667 94.4452 133.644 94.2927 133.653H92.5039V135.899Z" fill="white"/>
<path d="M100.675 134.398H101.738V138.858H100.707L100.654 138.205C100.499 138.448 100.286 138.648 100.033 138.786C99.7803 138.924 99.4967 138.995 99.209 138.993C97.8914 138.993 96.9138 138.187 96.9138 136.623C96.9138 135.058 97.9339 134.277 99.2373 134.288C99.5141 134.276 99.7894 134.335 100.037 134.459C100.285 134.584 100.497 134.769 100.654 134.997L100.675 134.398ZM98.0012 136.623C97.9901 136.801 98.0165 136.979 98.0786 137.147C98.1407 137.314 98.237 137.466 98.3615 137.594C98.486 137.722 98.6358 137.822 98.8013 137.888C98.9668 137.954 99.1443 137.985 99.3223 137.978C101.054 137.978 101.054 135.274 99.3223 135.274C99.1453 135.266 98.9685 135.296 98.8036 135.361C98.6386 135.426 98.4891 135.525 98.3646 135.651C98.2401 135.777 98.1434 135.929 98.0809 136.095C98.0183 136.261 97.9911 136.438 98.0012 136.615V136.623Z" fill="white"/>
<path d="M103.753 132.531V138.858H102.663V132.531H103.753Z" fill="white"/>
<path d="M107.682 138.858V136.466C107.682 135.881 107.373 135.345 106.771 135.345C106.169 135.345 105.822 135.881 105.822 136.466V138.858H104.72V134.387H105.74L105.822 134.93C105.943 134.731 106.116 134.568 106.323 134.46C106.53 134.352 106.762 134.302 106.994 134.316C107.274 134.299 107.551 134.37 107.788 134.519C108.025 134.668 108.21 134.887 108.316 135.146C108.464 134.886 108.681 134.672 108.944 134.529C109.207 134.385 109.504 134.318 109.803 134.334C111.068 134.334 111.691 135.111 111.691 136.463V138.872H110.59V136.463C110.59 135.877 110.345 135.377 109.75 135.377C109.613 135.383 109.479 135.417 109.356 135.476C109.233 135.536 109.122 135.62 109.032 135.723C108.942 135.826 108.873 135.946 108.83 136.076C108.788 136.206 108.772 136.344 108.783 136.481V138.872L107.682 138.858Z" fill="white"/>
<path d="M120.288 138.06C119.97 138.368 119.594 138.61 119.181 138.772C118.769 138.933 118.329 139.011 117.886 139C115.538 139 114.543 137.382 114.535 135.736C114.528 134.089 115.598 132.396 117.886 132.396C118.318 132.396 118.745 132.482 119.143 132.648C119.541 132.815 119.903 133.058 120.206 133.365L119.409 134.132C118.999 133.74 118.453 133.524 117.886 133.532C117.595 133.517 117.303 133.564 117.031 133.669C116.759 133.775 116.512 133.937 116.306 134.144C116.101 134.352 115.941 134.601 115.838 134.874C115.735 135.148 115.69 135.44 115.708 135.732C115.708 136.796 116.321 137.861 117.886 137.861C118.477 137.857 119.045 137.627 119.473 137.219L120.288 138.06Z" fill="white"/>
<path d="M125.208 136.615C125.222 136.925 125.171 137.233 125.06 137.522C124.948 137.81 124.778 138.073 124.56 138.292C124.341 138.51 124.08 138.682 123.792 138.794C123.504 138.906 123.196 138.957 122.888 138.943C122.579 138.957 122.271 138.906 121.984 138.794C121.696 138.681 121.435 138.51 121.218 138.291C121 138.072 120.83 137.81 120.72 137.521C120.609 137.233 120.559 136.924 120.575 136.615C120.562 136.308 120.612 136.002 120.723 135.715C120.834 135.429 121.003 135.168 121.219 134.95C121.435 134.732 121.694 134.56 121.979 134.447C122.265 134.334 122.57 134.281 122.877 134.291C123.185 134.28 123.492 134.333 123.779 134.446C124.066 134.559 124.327 134.729 124.545 134.947C124.764 135.165 124.935 135.426 125.049 135.713C125.163 136 125.217 136.307 125.208 136.615ZM121.666 136.615C121.651 136.783 121.672 136.952 121.727 137.111C121.781 137.27 121.868 137.416 121.982 137.54C122.096 137.663 122.235 137.762 122.389 137.829C122.543 137.896 122.709 137.93 122.877 137.928C123.045 137.93 123.211 137.896 123.365 137.829C123.519 137.762 123.657 137.663 123.771 137.54C123.884 137.416 123.971 137.27 124.025 137.111C124.079 136.952 124.1 136.783 124.085 136.615C124.093 136.449 124.068 136.283 124.011 136.126C123.955 135.97 123.868 135.826 123.756 135.703C123.643 135.58 123.508 135.481 123.357 135.411C123.206 135.341 123.043 135.302 122.877 135.295C122.71 135.298 122.545 135.335 122.393 135.403C122.24 135.472 122.104 135.571 121.991 135.695C121.879 135.819 121.793 135.964 121.738 136.123C121.684 136.281 121.663 136.449 121.676 136.615H121.666Z" fill="white"/>
<path d="M129.242 138.858V136.523C129.242 135.842 128.888 135.327 128.179 135.327C128.022 135.332 127.867 135.368 127.724 135.434C127.581 135.5 127.452 135.593 127.346 135.71C127.24 135.827 127.158 135.963 127.106 136.112C127.054 136.261 127.032 136.419 127.042 136.576V138.858H125.948V134.387H126.918L126.989 134.994C127.174 134.787 127.4 134.62 127.652 134.505C127.905 134.39 128.178 134.328 128.456 134.323C129.518 134.323 130.34 135.111 130.34 136.513V138.858H129.242Z" fill="white"/>
<path d="M131.654 138.858V135.427H130.815V134.458H131.647V134.16C131.628 133.93 131.658 133.698 131.736 133.481C131.814 133.264 131.938 133.065 132.098 132.9C132.259 132.734 132.454 132.605 132.668 132.522C132.883 132.438 133.113 132.401 133.344 132.414C133.755 132.418 134.156 132.541 134.498 132.769L134.095 133.592C133.897 133.449 133.662 133.368 133.418 133.358C133.035 133.358 132.749 133.61 132.749 134.153V134.451H134.059V135.42H132.749V138.851L131.654 138.858Z" fill="white"/>
<path d="M135.869 137.02C135.944 137.57 136.422 137.971 137.197 137.971C137.632 137.977 138.055 137.828 138.391 137.552L139.099 138.262C138.575 138.736 137.889 138.99 137.183 138.972C135.649 138.972 134.736 138.021 134.736 136.591C134.721 136.277 134.772 135.964 134.886 135.671C135 135.379 135.174 135.114 135.398 134.893C135.621 134.673 135.888 134.502 136.182 134.392C136.475 134.283 136.789 134.236 137.102 134.256C138.593 134.256 139.521 135.178 139.351 137.016L135.869 137.02ZM138.292 136.105C138.217 135.526 137.768 135.239 137.134 135.239C136.858 135.217 136.584 135.292 136.356 135.449C136.129 135.607 135.963 135.839 135.887 136.105H138.292Z" fill="white"/>
<path d="M141.214 134.398L141.296 134.912C141.423 134.698 141.609 134.524 141.832 134.412C142.055 134.299 142.305 134.253 142.553 134.277C142.975 134.27 143.385 134.422 143.701 134.703L143.201 135.661C143.094 135.563 142.969 135.487 142.833 135.438C142.697 135.389 142.552 135.367 142.408 135.374C142.257 135.361 142.105 135.382 141.963 135.434C141.821 135.487 141.693 135.57 141.587 135.678C141.48 135.786 141.399 135.916 141.349 136.059C141.299 136.202 141.28 136.355 141.296 136.506V138.858H140.194V134.398H141.214Z" fill="white"/>
<path d="M145.054 137.02C145.124 137.57 145.603 137.971 146.382 137.971C146.816 137.977 147.237 137.828 147.572 137.552L148.28 138.262C147.756 138.736 147.07 138.99 146.364 138.972C144.83 138.972 143.917 138.021 143.917 136.591C143.902 136.277 143.954 135.963 144.068 135.671C144.183 135.378 144.357 135.113 144.581 134.893C144.805 134.673 145.072 134.502 145.366 134.392C145.66 134.283 145.973 134.236 146.286 134.256C147.774 134.256 148.705 135.178 148.532 137.016L145.054 137.02ZM147.473 136.105C147.402 135.526 146.949 135.239 146.318 135.239C146.042 135.217 145.768 135.291 145.54 135.449C145.313 135.606 145.147 135.838 145.071 136.105H147.473Z" fill="white"/>
<path d="M152.655 138.858V136.523C152.655 135.842 152.301 135.327 151.592 135.327C151.435 135.332 151.28 135.368 151.137 135.434C150.994 135.5 150.865 135.593 150.759 135.71C150.653 135.827 150.571 135.963 150.519 136.112C150.467 136.261 150.445 136.419 150.455 136.576V138.858H149.361V134.387H150.345L150.416 134.994C150.601 134.787 150.826 134.621 151.078 134.506C151.33 134.39 151.602 134.328 151.879 134.323C152.942 134.323 153.767 135.111 153.767 136.513V138.858H152.655Z" fill="white"/>
<path d="M158.524 138.287C158.304 138.519 158.037 138.702 157.742 138.824C157.447 138.946 157.129 139.005 156.81 138.996C155.517 138.996 154.444 138.216 154.444 136.633C154.444 135.051 155.506 134.274 156.81 134.274C157.109 134.264 157.407 134.318 157.684 134.431C157.961 134.545 158.211 134.716 158.418 134.934L157.709 135.665C157.465 135.441 157.148 135.314 156.817 135.31C156.644 135.306 156.473 135.337 156.313 135.403C156.153 135.468 156.008 135.566 155.888 135.689C155.768 135.813 155.674 135.961 155.613 136.123C155.553 136.284 155.526 136.457 155.535 136.63C155.522 136.801 155.545 136.973 155.604 137.134C155.663 137.296 155.755 137.443 155.874 137.566C155.994 137.689 156.138 137.785 156.297 137.848C156.457 137.911 156.628 137.94 156.799 137.932C156.977 137.941 157.154 137.914 157.322 137.853C157.489 137.792 157.642 137.698 157.773 137.577L158.524 138.287Z" fill="white"/>
<path d="M160.132 137.02C160.203 137.57 160.681 137.971 161.46 137.971C161.894 137.977 162.316 137.828 162.65 137.552L163.359 138.262C162.835 138.736 162.149 138.99 161.443 138.972C159.909 138.972 158.995 138.021 158.995 136.591C158.981 136.277 159.032 135.963 159.147 135.671C159.261 135.378 159.436 135.113 159.659 134.893C159.883 134.673 160.15 134.502 160.444 134.392C160.738 134.283 161.052 134.236 161.365 134.256C162.852 134.256 163.784 135.178 163.61 137.016L160.132 137.02ZM162.551 136.105C162.48 135.526 162.027 135.239 161.397 135.239C161.121 135.217 160.846 135.291 160.619 135.449C160.392 135.606 160.226 135.838 160.15 136.105H162.551Z" fill="white"/>
<path d="M16.0312 85.4375H7.10532V94.7448H1.15468V63.1289C6.11353 63.1289 11.0724 63.0828 16.0312 63.0828C31.4462 63.0828 31.4887 85.4375 16.0312 85.4375ZM7.10532 79.9694H16.0312C23.6502 79.9694 23.6041 68.7744 16.0312 68.7744H7.10532V79.9694Z" fill="white"/>
<path d="M54.0303 88.7765H37.5315L34.8253 94.7448H28.3788L42.547 63.136H49.0396L63.2077 94.7448H56.7152L54.0303 88.7765ZM45.7809 69.7644L39.9223 83.2233H51.6429L45.7809 69.7644Z" fill="white"/>
<path d="M72.2895 63.1289V89.2306H88.5155V94.7448H66.3495V63.1289H72.2895Z" fill="white"/>
<path d="M120.206 71.8437L109.934 85.5723H108.765L98.7131 71.7976V94.7838H92.7625V63.1644H99.6128L109.484 76.7546L119.356 63.1644H126.164V94.7732H120.213L120.206 71.8437Z" fill="white"/>
<path d="M154.153 88.7765H137.654L134.948 94.7377H128.502L142.67 63.1289H149.162L163.331 94.7377H156.813L154.153 88.7765ZM145.904 69.7643L140.045 83.2233H151.762L145.904 69.7643Z" fill="white"/>
<path d="M21.7658 112.366C21.865 118.107 18.3655 123.912 10.4313 123.912H1.53015V101.203H10.4348C18.2061 101.21 21.6702 106.756 21.7658 112.366ZM5.7806 119.793H10.4419C15.5885 119.793 17.6287 116.031 17.526 112.341C17.4304 108.793 15.3547 105.269 10.4419 105.269H5.7806V119.793Z" fill="white"/>
<path d="M41.4879 123.912H24.5215V101.203H41.4879V105.354H28.7649V110.574H41.0345V114.566H28.7649V119.69H41.4879V123.912Z" fill="white"/>
<path d="M67.4121 119.633H55.564L53.6194 123.912H48.9935L59.1591 101.203H63.8205L73.9897 123.912H69.3284L67.4121 119.633ZM61.4898 105.975L57.2783 115.641H65.6978L61.4898 105.975Z" fill="white"/>
<path d="M94.5583 121.059C92.2276 123.362 89.2169 124.43 85.9476 124.43C77.5281 124.43 73.9649 118.625 73.933 112.721C73.9011 106.816 77.7548 100.752 85.9476 100.752C87.4944 100.75 89.0263 101.055 90.4546 101.65C91.8828 102.245 93.1789 103.118 94.2678 104.219L91.4342 106.98C89.9568 105.582 87.9932 104.818 85.9617 104.851C80.4893 104.851 78.1267 108.938 78.1692 112.735C78.2118 116.532 80.3689 120.421 85.9617 120.421C88.0844 120.406 90.1217 119.582 91.6609 118.118L94.5583 121.059Z" fill="white"/>
<path d="M113.859 123.912H96.8925V101.203H113.859V105.354H101.132V110.574H113.405V114.566H101.132V119.69H113.859V123.912Z" fill="white"/>
<path d="M117.195 123.912V101.203H121.446V123.912H117.195Z" fill="white"/>
<path d="M132.348 105.099H125.147V101.196H143.796V105.099H136.624V123.905H132.348V105.099Z" fill="white"/>
<path d="M163.302 123.912H146.336V101.203H163.302V105.358H150.579V110.578H162.849V114.57H150.579V119.693H163.302V123.912Z" fill="white"/>
<path d="M72.3391 0.00354004H76.7029V0.18451L69.5692 10.4357L76.9154 20.9886V21.1092H72.4595L67.0579 13.1751L61.6705 21.1057H57.2146V20.985L64.5289 10.4322L57.4271 0.180958V0.00354004H61.7909L67.0579 7.87025L72.3391 0.00354004Z" fill="white"/>
<path d="M93.5559 0.00354004H97.9197V0.18451L90.7896 10.4322L98.1322 20.985V21.1057H93.6763L88.2889 13.1751L82.9014 21.1057H78.4456V20.985L85.7599 10.4322L78.6758 0.180958V0.00354004H83.0396L88.3066 7.87381L93.5559 0.00354004Z" fill="white"/>
<path d="M26.2501 51.9445C26.2501 51.9445 41.0416 49.4322 46.2307 37.4707C51.1187 23.2489 41.201 18.235 41.201 18.235C41.201 18.235 36.7876 15.2012 32.1192 15.8967C29.6079 16.1557 29.4344 16.5886 29.3494 20.3144C29.2644 24.0402 23.6396 21.9608 22.9489 21.4428C20.179 20.3995 15.9392 13.4696 21.9961 8.53028C22.7045 8.00867 27.9644 3.41708 38.5197 8.00866C51.1471 14.3354 51.7528 23.6924 51.4942 28.5466C51.5792 34.6143 47.0808 42.0658 44.1409 44.4894C36.5362 52.6329 26.2501 51.9445 26.2501 51.9445Z" fill="url(#paint0_linear_269_2645)"/>
<path d="M47.7963 12.3944C47.7963 12.3944 37.914 1.08581 25.028 2.91676C10.364 6.18481 11.2955 17.2734 11.2955 17.2734C11.2955 17.2734 11.0264 22.6279 14.0619 26.2508C15.5956 28.2556 16.056 28.1775 19.2687 26.3005C22.4813 24.4234 23.6573 30.3101 23.5794 31.1724C24.1425 34.0785 20.4694 41.3278 13.0949 38.7446C12.2909 38.4288 5.62474 36.3281 4.00249 24.906C2.76986 10.8154 10.41 5.38996 14.6747 3.07642C19.7858 -0.173876 28.4886 -0.234186 32.0838 1.00419C42.9968 3.25385 47.7963 12.3944 47.7963 12.3944Z" fill="url(#paint1_linear_269_2645)"/>
<path d="M2.59278 15.6163C2.59278 15.6163 -1.30345 30.122 7.34267 39.8516C18.1849 50.2696 26.8841 43.3468 26.8841 43.3468C26.8841 43.3468 31.4888 40.6039 32.8099 36.062C33.6246 33.674 33.3023 33.3333 29.9763 31.694C26.6503 30.0546 30.876 25.8108 31.634 25.3992C33.7344 23.3163 41.7961 22.3653 43.7371 29.9411C43.9178 30.7891 45.8623 37.5133 37.287 45.199C26.2642 54.038 17.5296 50.6706 13.2402 48.3926C7.70396 45.93 2.83362 38.7162 1.8631 35.0259C-2.32713 24.6682 2.59278 15.6163 2.59278 15.6163Z" fill="url(#paint2_linear_269_2645)"/>
<path style="mix-blend-mode:multiply" d="M35.4204 27.4466C35.5925 28.1227 35.6805 28.8175 35.6825 29.5153C35.6825 34.2098 31.6623 38.0314 26.7105 38.0314C21.7587 38.0314 17.735 34.224 17.735 29.5153C17.7372 28.8381 17.8216 28.1637 17.9865 27.5069C17.2959 28.766 16.9431 30.183 16.9628 31.6195C17.0968 34.1199 18.1819 36.4739 19.9948 38.1977C21.8078 39.9215 24.211 40.8841 26.7105 40.8878C29.2106 40.8831 31.6139 39.9191 33.4263 38.1939C35.2387 36.4687 36.3224 34.1134 36.4547 31.6124C36.4772 30.1573 36.1208 28.7215 35.4204 27.4466Z" fill="url(#paint3_radial_269_2645)"/>
<path style="mix-blend-mode:screen" opacity="0.5" d="M26.7105 39.8765C24.1306 39.889 21.6351 38.9564 19.6938 37.2543C20.5667 38.2576 21.6455 39.0604 22.8564 39.6078C24.0674 40.1553 25.382 40.4345 26.7105 40.4265C28.0387 40.4357 29.3532 40.1569 30.5637 39.6094C31.7743 39.0618 32.8523 38.2584 33.7238 37.2543C31.7838 38.9565 29.2894 39.8891 26.7105 39.8765Z" fill="url(#paint4_linear_269_2645)"/>
<path style="mix-blend-mode:screen" d="M35.7321 31.584C35.7321 36.3884 31.6127 40.2845 26.5228 40.2845C21.4329 40.2845 17.3135 36.3814 17.3135 31.584C17.3135 26.7866 21.4329 22.8905 26.5228 22.8905C31.6127 22.8905 35.7321 26.7866 35.7321 31.584Z" fill="url(#paint5_radial_269_2645)"/>
<path style="mix-blend-mode:screen" d="M32.3849 32.2688C32.3849 35.7533 29.3954 38.5778 25.7117 38.5778C22.028 38.5778 19.0385 35.7391 19.0385 32.2688C19.0385 28.7985 22.028 25.9634 25.7117 25.9634C29.3954 25.9634 32.3849 28.7879 32.3849 32.2688Z" fill="url(#paint6_radial_269_2645)"/>
<path style="mix-blend-mode:screen" d="M31.1133 23.3944C33.0118 27.2975 33.6423 29.3414 33.9469 32.9927C35.3637 29.3414 34.4782 26.8682 32.3565 23.3624C31.7473 22.3547 29.7212 19.1541 27.9573 15.8612C28.8676 18.3734 30.5997 22.3369 31.1133 23.3944Z" fill="url(#paint7_linear_269_2645)"/>
<path style="mix-blend-mode:screen" d="M26.7814 32.0666C26.7545 32.9823 26.3668 33.8502 25.7031 34.4806C25.0394 35.1109 24.1536 35.4524 23.2393 35.4304C22.3251 35.4524 21.4392 35.1109 20.7755 34.4806C20.1118 33.8502 19.7242 32.9823 19.6973 32.0666C19.7242 31.1508 20.1118 30.2829 20.7755 29.6526C21.4392 29.0223 22.3251 28.6808 23.2393 28.7027C24.1536 28.6808 25.0394 29.0223 25.7031 29.6526C26.3668 30.2829 26.7545 31.1508 26.7814 32.0666Z" fill="url(#paint8_radial_269_2645)"/>
<path style="mix-blend-mode:screen" d="M20.6572 28.1101C20.1613 29.235 19.5946 31.4207 20.0515 34.373C19.524 33.3706 19.2316 32.2609 19.1966 31.1283C19.1616 29.9957 19.3849 28.87 19.8496 27.8369C21.0645 24.9521 24.3586 19.037 26.0836 14.6725C25.2618 18.1002 21.1637 26.9711 20.6572 28.1101Z" fill="url(#paint9_linear_269_2645)"/>
<path style="mix-blend-mode:screen" d="M22.8887 30.6685C22.8887 34.4475 22.4742 35.4872 23.0976 36.9314C21.9323 36.1507 20.8697 34.9549 20.8697 30.6685C20.8697 27.9398 25.3929 18.8099 26.6716 12.9977C26.3421 16.9789 22.8887 28.0959 22.8887 30.6685Z" fill="url(#paint10_linear_269_2645)"/>
<path style="mix-blend-mode:multiply" d="M36.5964 30.6366C36.9045 36.5233 32.4168 40.973 26.6433 40.9446C24.0709 40.8711 21.6313 39.7838 19.8545 37.9189C18.0778 36.0539 17.1073 33.5619 17.1541 30.9843C18.3194 23.6463 25.8534 18.6325 26.9337 11.7806C28.3292 18.9944 35.7215 24.4021 36.5964 30.6366Z" fill="url(#paint11_linear_269_2645)"/>
</g>
<defs>
<linearGradient id="paint0_linear_269_2645" x1="18.9216" y1="28.9724" x2="51.5473" y2="28.9724" gradientUnits="userSpaceOnUse">
<stop stop-color="#2276B9"/>
<stop offset="0.98" stop-color="#005D9E"/>
</linearGradient>
<linearGradient id="paint1_linear_269_2645" x1="38.7534" y1="-0.408059" x2="5.2184" y2="32.8087" gradientUnits="userSpaceOnUse">
<stop stop-color="#D95E33"/>
<stop offset="0.13" stop-color="#E17D26"/>
<stop offset="0.29" stop-color="#EB9F19"/>
<stop offset="0.46" stop-color="#F2BA0E"/>
<stop offset="0.64" stop-color="#F7CD06"/>
<stop offset="0.81" stop-color="#FAD802"/>
<stop offset="1" stop-color="#FBDC00"/>
</linearGradient>
<linearGradient id="paint2_linear_269_2645" x1="0.17355" y1="33.2694" x2="44.0488" y2="33.2694" gradientUnits="userSpaceOnUse">
<stop stop-color="#801105"/>
<stop offset="0.26" stop-color="#DA130A"/>
</linearGradient>
<radialGradient id="paint3_radial_269_2645" cx="0" cy="0" r="1" gradientUnits="userSpaceOnUse" gradientTransform="translate(26.7881 32.7848) scale(11.455 11.4754)">
<stop offset="0.47" stop-color="white"/>
<stop offset="0.82" stop-color="#CDA051"/>
<stop offset="1" stop-color="#B57300"/>
</radialGradient>
<linearGradient id="paint4_linear_269_2645" x1="22.414" y1="38.8404" x2="30.7555" y2="38.8404" gradientUnits="userSpaceOnUse">
<stop stop-color="#743315"/>
<stop offset="0.2" stop-color="#A7690C"/>
<stop offset="0.49" stop-color="#EDB100"/>
<stop offset="0.59" stop-color="#D99C04"/>
<stop offset="0.81" stop-color="#A5660D"/>
<stop offset="1" stop-color="#743315"/>
</linearGradient>
<radialGradient id="paint5_radial_269_2645" cx="0" cy="0" r="1" gradientUnits="userSpaceOnUse" gradientTransform="translate(24.8517 33.709) scale(8.64031 8.65573)">
<stop stop-color="#F39A17"/>
<stop offset="0.04" stop-color="#E79216"/>
<stop offset="0.4" stop-color="#85540D"/>
<stop offset="0.68" stop-color="#3D2706"/>
<stop offset="0.89" stop-color="#110B02"/>
<stop offset="0.99"/>
</radialGradient>
<radialGradient id="paint6_radial_269_2645" cx="0" cy="0" r="1" gradientUnits="userSpaceOnUse" gradientTransform="translate(24.0802 33.4497) scale(6.64981 6.66169)">
<stop offset="0.13" stop-color="#F39A17"/>
<stop offset="0.27" stop-color="#BE7912"/>
<stop offset="0.47" stop-color="#7B4E0C"/>
<stop offset="0.64" stop-color="#462D07"/>
<stop offset="0.79" stop-color="#201403"/>
<stop offset="0.92" stop-color="#090501"/>
<stop offset="0.99"/>
</radialGradient>
<linearGradient id="paint7_linear_269_2645" x1="27.3476" y1="16.0155" x2="32.1634" y2="32.9288" gradientUnits="userSpaceOnUse">
<stop stop-color="#683F11"/>
<stop offset="0.57" stop-color="#2E1C08"/>
<stop offset="1"/>
</linearGradient>
<radialGradient id="paint8_radial_269_2645" cx="0" cy="0" r="1" gradientUnits="userSpaceOnUse" gradientTransform="translate(21.6001 33.2441) scale(3.54615 3.55248)">
<stop offset="0.21" stop-color="#F7D18A"/>
<stop offset="0.3" stop-color="#E1BF7E"/>
<stop offset="0.49" stop-color="#A98F5F"/>
<stop offset="0.77" stop-color="#50442D"/>
<stop offset="1"/>
</radialGradient>
<linearGradient id="paint9_linear_269_2645" x1="24.812" y1="15.1693" x2="19.343" y2="33.1256" gradientUnits="userSpaceOnUse">
<stop stop-color="#E0A43B"/>
<stop offset="0.05" stop-color="#D39A38"/>
<stop offset="0.47" stop-color="#63481A"/>
<stop offset="0.76" stop-color="#1C1407"/>
<stop offset="0.89"/>
</linearGradient>
<linearGradient id="paint10_linear_269_2645" x1="27.2277" y1="13.938" x2="21.1968" y2="36.3618" gradientUnits="userSpaceOnUse">
<stop stop-color="#F7D18A"/>
<stop offset="0.22" stop-color="#B79B66"/>
<stop offset="0.68" stop-color="#342C1D"/>
<stop offset="0.89"/>
</linearGradient>
<linearGradient id="paint11_linear_269_2645" x1="17.859" y1="26.3643" x2="37.3154" y2="26.3643" gradientUnits="userSpaceOnUse">
<stop stop-color="#E6631A"/>
<stop offset="0.01" stop-color="#E6631A"/>
<stop offset="0.27" stop-color="#E6631A" stop-opacity="0.9"/>
<stop offset="0.28" stop-color="#E6631A" stop-opacity="0.88"/>
<stop offset="0.35" stop-color="#E6631A" stop-opacity="0.67"/>
<stop offset="0.42" stop-color="#E6631A" stop-opacity="0.49"/>
<stop offset="0.49" stop-color="#E6631A" stop-opacity="0.34"/>
<stop offset="0.57" stop-color="#E6631A" stop-opacity="0.22"/>
<stop offset="0.66" stop-color="#E6631A" stop-opacity="0.12"/>
<stop offset="0.75" stop-color="#E6631A" stop-opacity="0.05"/>
<stop offset="0.85" stop-color="#E6631A" stop-opacity="0.01"/>
<stop offset="1" stop-color="#E6631A" stop-opacity="0"/>
</linearGradient>
<clipPath id="clip0_269_2645">
<rect width="164" height="139" fill="white"/>
</clipPath>
</defs>
</svg>
