<svg width="98" height="84" viewBox="0 0 98 84" fill="none" xmlns="http://www.w3.org/2000/svg">
<path d="M41.7073 22.3032C40.9456 23.0698 39.9151 23.4993 38.8414 23.4976C36.1894 23.4976 34.8051 21.6192 34.7945 19.4663C34.7839 17.3134 36.1428 15.3449 38.8414 15.3449C39.9155 15.343 40.9464 15.7734 41.7073 16.5414L41.284 16.9059C40.9622 16.5814 40.5801 16.3246 40.1597 16.1505C39.7394 15.9765 39.2892 15.8885 38.8351 15.8917C36.5407 15.8917 35.3618 17.5321 35.3724 19.4448C35.3957 21.3125 36.564 22.9294 38.8351 22.9294C39.7548 22.9297 40.6382 22.5657 41.2967 21.9151L41.7073 22.3032Z" fill="#555554"/>
<path d="M42.6513 20.5877C42.6513 18.8015 43.9212 17.6629 45.4727 17.6629C47.0242 17.6629 48.2941 18.8015 48.2941 20.5877C48.2941 22.374 47.0347 23.4697 45.4727 23.4697C43.9107 23.4697 42.6513 22.3826 42.6513 20.5877ZM47.7544 20.5877C47.7544 19.1317 46.7321 18.1861 45.4727 18.1861C44.2133 18.1861 43.191 19.1317 43.191 20.5877C43.191 22.0437 44.2133 22.9229 45.4727 22.9229C46.7321 22.9229 47.7544 22.0523 47.7544 20.5877Z" fill="#555554"/>
<path d="M50.1038 17.7722V18.7736C50.5271 17.9995 51.306 17.68 52.0828 17.6693C53.5644 17.6693 54.5888 18.5914 54.5888 20.1503V23.3968H54.0406V20.1589C54.0406 18.883 53.2638 18.199 52.0616 18.2118C50.9144 18.2225 50.1165 19.0996 50.1165 20.2597V23.3925H49.5662V17.7679L50.1038 17.7722Z" fill="#555554"/>
<path d="M56.6017 23.3968V18.3062H55.4651V17.8173H56.6017V17.3155C56.6017 16.2004 57.0398 15.3856 58.2632 15.3856C58.6626 15.3885 59.05 15.5241 59.366 15.7716L59.095 16.1811C58.8473 16.0028 58.5523 15.9042 58.2484 15.8981C57.552 15.8981 57.1457 16.327 57.1457 17.3091V17.8108H58.9786V18.2997H57.1457V23.3904L56.6017 23.3968Z" fill="#555554"/>
<path d="M59.9501 20.5877C59.9402 20.2075 60.006 19.8291 60.1437 19.4753C60.2814 19.1214 60.4881 18.7993 60.7515 18.5282C61.0149 18.2572 61.3295 18.0427 61.6766 17.8977C62.0237 17.7527 62.3961 17.6801 62.7715 17.6843C64.3336 17.6843 65.7348 18.6514 65.5231 20.8494H60.5216C60.5544 21.4269 60.8092 21.9684 61.2313 22.358C61.6535 22.7476 62.2094 22.9542 62.78 22.9336C63.5102 22.9336 64.3653 22.6377 64.7802 22.0759L65.1739 22.3933C64.6341 23.1116 63.669 23.4762 62.78 23.4762C61.2095 23.4762 59.9501 22.3718 59.9501 20.5877ZM65.0194 20.3604C65.0194 18.9709 64.1092 18.1968 62.7715 18.1968C61.6244 18.1968 60.6359 18.9816 60.5131 20.3604H65.0194Z" fill="#555554"/>
<path d="M67.4598 17.7723L67.4809 18.7737C67.8302 18.0103 68.6175 17.7144 69.3245 17.7144C69.7448 17.7054 70.1588 17.8201 70.5161 18.0446L70.2685 18.4992C69.984 18.3246 69.657 18.2339 69.3245 18.2376C68.8359 18.241 68.3686 18.4407 68.0253 18.7929C67.6821 19.1452 67.4908 19.621 67.4936 20.116V23.3969H66.9518V17.7723H67.4598Z" fill="#555554"/>
<path d="M71.0347 20.5877C71.0244 20.2076 71.09 19.8293 71.2274 19.4754C71.3649 19.1216 71.5714 18.7995 71.8346 18.5284C72.0979 18.2573 72.4124 18.0428 72.7594 17.8978C73.1064 17.7527 73.4787 17.6801 73.854 17.6843C75.4161 17.6843 76.8172 18.6514 76.6056 20.8494H71.6041C71.6369 21.4269 71.8917 21.9684 72.3138 22.358C72.7359 22.7476 73.2918 22.9542 73.8625 22.9336C74.5948 22.9336 75.4478 22.6377 75.8648 22.0759L76.2563 22.3933C75.7187 23.1116 74.7515 23.4762 73.8625 23.4762C72.292 23.4762 71.0347 22.3718 71.0347 20.5877ZM76.1018 20.3604C76.1018 18.9709 75.1917 18.1968 73.854 18.1968C72.7089 18.1968 71.7184 18.9816 71.5956 20.3604H76.1018Z" fill="#555554"/>
<path d="M78.5655 17.7722V18.7736C78.9888 17.9995 79.7677 17.68 80.5424 17.6693C82.024 17.6693 83.0485 18.5914 83.0485 20.1503V23.3968H82.4981V20.1589C82.4981 18.883 81.7235 18.199 80.5212 18.2118C79.3741 18.2225 78.5761 19.0996 78.5761 20.2597V23.3925H78.0258V17.7679L78.5655 17.7722Z" fill="#555554"/>
<path d="M89.0405 22.6099C88.775 22.879 88.4595 23.092 88.1122 23.2367C87.7648 23.3813 87.3926 23.4547 87.0171 23.4526C85.455 23.4526 84.1618 22.359 84.1618 20.5835C84.1618 18.808 85.4106 17.7144 87.0171 17.7144C87.7744 17.7161 88.5009 18.0187 89.0405 18.5571L88.6807 18.9088C88.2351 18.4717 87.6372 18.2305 87.0171 18.2376C85.7471 18.2376 84.7015 19.0696 84.7015 20.5835C84.7015 22.0974 85.7598 22.9294 87.0171 22.9294C87.6368 22.9269 88.2306 22.6773 88.6701 22.2346L89.0405 22.6099Z" fill="#555554"/>
<path d="M90.8946 15.9388C90.8869 16.0526 90.8368 16.1592 90.7545 16.237C90.6722 16.3148 90.5638 16.3581 90.4512 16.3581C90.3386 16.3581 90.2303 16.3148 90.1479 16.237C90.0656 16.1592 90.0156 16.0526 90.0078 15.9388C90.0156 15.8251 90.0656 15.7185 90.1479 15.6407C90.2303 15.5629 90.3386 15.5196 90.4512 15.5196C90.5638 15.5196 90.6722 15.5629 90.7545 15.6407C90.8368 15.7185 90.8869 15.8251 90.8946 15.9388ZM90.1644 17.7487V23.3968H90.7147V17.7487H90.1644Z" fill="#555554"/>
<path d="M97.6275 17.7722V23.3968H97.0772V22.2003C96.8438 22.5982 96.5109 22.9266 96.1122 23.1525C95.7134 23.3784 95.2629 23.4938 94.8061 23.4869C94.4307 23.4929 94.0579 23.4216 93.7104 23.2775C93.3629 23.1334 93.0478 22.9193 92.7843 22.6483C92.5208 22.3773 92.3142 22.055 92.1771 21.7008C92.0401 21.3467 91.9753 20.968 91.9868 20.5878C91.9743 20.2081 92.0385 19.83 92.1754 19.4764C92.3124 19.1228 92.5192 18.8013 92.7832 18.5316C93.0472 18.262 93.3628 18.0498 93.7107 17.9081C94.0585 17.7665 94.4313 17.6984 94.8061 17.7079C95.2655 17.6937 95.7199 17.807 96.1203 18.0357C96.5206 18.2644 96.8515 18.5997 97.0772 19.0052V17.7765L97.6275 17.7722ZM92.5477 20.5835C92.5477 21.9966 93.5594 22.9422 94.8167 22.9422C97.909 22.9422 97.909 18.2397 94.8167 18.2397C94.5118 18.2312 94.2084 18.2863 93.9255 18.4018C93.6426 18.5173 93.3862 18.6906 93.1723 18.9109C92.9584 19.1312 92.7916 19.3938 92.6824 19.6823C92.5731 19.9708 92.5236 20.279 92.5371 20.5878L92.5477 20.5835Z" fill="#555554"/>
<path d="M34.4093 30.2373V25.1359H34.7903V30.2373H34.4093Z" fill="#555554"/>
<path d="M36.1788 26.6283V27.2716C36.3077 27.0487 36.4938 26.8653 36.7175 26.741C36.9411 26.6168 37.1939 26.5563 37.4487 26.5662C38.397 26.5662 39.051 27.1558 39.051 28.1551V30.2372H38.6996V28.168C38.6996 27.351 38.2022 26.9157 37.4297 26.9221C37.2615 26.9204 37.0947 26.9536 36.9396 27.0197C36.7845 27.0857 36.6443 27.1832 36.5278 27.3061C36.4112 27.429 36.3207 27.5747 36.2617 27.7344C36.2028 27.894 36.1768 28.0642 36.1851 28.2344V30.2372H35.838V26.6369L36.1788 26.6283Z" fill="#555554"/>
<path d="M40.63 25.5433V26.6283H41.8385V26.9286H40.63V29.1222C40.63 29.609 40.7315 29.9521 41.2861 29.9521C41.4764 29.9441 41.6627 29.8944 41.8322 29.8062L41.9549 30.0979C41.7483 30.2086 41.5197 30.2709 41.2861 30.2801C40.5305 30.2801 40.285 29.8277 40.285 29.1222V26.9286H39.5293V26.6283H40.2828V25.5798L40.63 25.5433Z" fill="#555554"/>
<path d="M42.4502 28.4296C42.444 28.1862 42.4862 27.9441 42.5743 27.7176C42.6624 27.4912 42.7947 27.285 42.9632 27.1115C43.1317 26.938 43.333 26.8007 43.5551 26.7077C43.7771 26.6147 44.0154 26.568 44.2557 26.5704C45.2568 26.5704 46.1479 27.1901 46.0103 28.5968H42.81C42.8314 28.9664 42.9946 29.3128 43.2647 29.562C43.5349 29.8113 43.8905 29.9436 44.2557 29.9306C44.7234 29.9306 45.2695 29.7398 45.5256 29.3838L45.7775 29.5982C45.5889 29.8218 45.3535 29.9999 45.0884 30.1197C44.8234 30.2395 44.5353 30.298 44.2451 30.2908C44.0038 30.2983 43.7635 30.255 43.5396 30.1635C43.3157 30.072 43.113 29.9345 42.9442 29.7595C42.7755 29.5845 42.6445 29.376 42.5594 29.1471C42.4744 28.9181 42.4372 28.6738 42.4502 28.4296ZM45.6949 28.2838C45.6949 27.3939 45.1129 26.8985 44.2557 26.8985C43.8838 26.8921 43.5242 27.0335 43.254 27.2924C42.9837 27.5513 42.8244 27.9072 42.81 28.2838H45.6949Z" fill="#555554"/>
<path d="M47.2676 26.6283L47.2824 27.2716C47.3938 27.0559 47.5643 26.8772 47.7734 26.757C47.9825 26.6369 48.2213 26.5803 48.4613 26.594C48.7304 26.5893 48.9951 26.6638 49.2233 26.8085L49.0645 27.1001C48.8826 26.9888 48.6738 26.9309 48.4613 26.9328C48.3065 26.9337 48.1534 26.9654 48.0106 27.0262C47.8679 27.087 47.7384 27.1757 47.6295 27.2872C47.5207 27.3987 47.4345 27.5309 47.376 27.6761C47.3176 27.8213 47.2879 27.9768 47.2887 28.1337V30.2373H46.9353V26.6369L47.2676 26.6283Z" fill="#555554"/>
<path d="M50.0911 26.6283V27.2716C50.2199 27.0487 50.4061 26.8653 50.6298 26.741C50.8534 26.6168 51.1061 26.5563 51.361 26.5662C52.3114 26.5662 52.9654 27.1558 52.9654 28.1551V30.2372H52.6119V28.168C52.6119 27.351 52.1166 26.9157 51.342 26.9221C51.1738 26.9208 51.0072 26.9542 50.8522 27.0203C50.6972 27.0864 50.5572 27.1839 50.4407 27.3067C50.3242 27.4296 50.2337 27.5752 50.1747 27.7347C50.1156 27.8942 50.0894 28.0643 50.0974 28.2344V30.2372H49.7461V26.6369L50.0911 26.6283Z" fill="#555554"/>
<path d="M57.298 26.6283V30.2372H56.9467V29.4717C56.7973 29.7265 56.5842 29.9368 56.3289 30.0814C56.0735 30.226 55.7851 30.2997 55.4926 30.2951C55.252 30.2993 55.0131 30.254 54.7904 30.1618C54.5677 30.0696 54.3657 29.9325 54.1969 29.7588C54.028 29.5851 53.8958 29.3785 53.8082 29.1515C53.7205 28.9245 53.6794 28.6818 53.6871 28.4381C53.6796 28.1952 53.721 27.9532 53.8089 27.727C53.8968 27.5008 54.0292 27.2951 54.1982 27.1225C54.3672 26.9499 54.5691 26.814 54.7917 26.7232C55.0142 26.6323 55.2527 26.5884 55.4926 26.594C55.7865 26.5853 56.0773 26.658 56.3335 26.8042C56.5897 26.9504 56.8017 27.1647 56.9467 27.4239V26.6369L57.298 26.6283ZM54.0406 28.4296C54.0331 28.6262 54.0653 28.8223 54.1352 29.0059C54.2051 29.1895 54.3113 29.3566 54.4472 29.4972C54.5832 29.6377 54.746 29.7486 54.9258 29.8232C55.1055 29.8977 55.2984 29.9343 55.4926 29.9306C57.4716 29.9306 57.4716 26.9285 55.4926 26.9285C55.2981 26.9239 55.1049 26.9599 54.9247 27.0341C54.7445 27.1083 54.5813 27.2192 54.4452 27.3599C54.309 27.5006 54.2029 27.6682 54.1333 27.8522C54.0637 28.0362 54.0322 28.2327 54.0406 28.4296Z" fill="#555554"/>
<path d="M61.2476 29.7269C61.0775 29.8989 60.8755 30.035 60.6531 30.1274C60.4308 30.2198 60.1926 30.2666 59.9523 30.2651C59.7109 30.2756 59.47 30.2354 59.2446 30.1471C59.0193 30.0588 58.8145 29.9242 58.6429 29.7518C58.4714 29.5795 58.3369 29.373 58.2479 29.1455C58.1588 28.9179 58.1172 28.6742 58.1256 28.4296C58.1256 27.2931 58.9257 26.5919 59.9523 26.5919C60.4374 26.5926 60.9027 26.7867 61.2476 27.1323L61.0169 27.3574C60.7334 27.0792 60.3532 26.9252 59.9586 26.9286C59.7612 26.9177 59.5638 26.9491 59.3792 27.0207C59.1946 27.0923 59.0269 27.2025 58.8872 27.3441C58.7474 27.4857 58.6386 27.6556 58.568 27.8426C58.4973 28.0296 58.4663 28.2296 58.477 28.4296C58.4663 28.6295 58.4973 28.8296 58.568 29.0166C58.6386 29.2036 58.7474 29.3734 58.8872 29.515C59.0269 29.6566 59.1946 29.7668 59.3792 29.8384C59.5638 29.91 59.7612 29.9414 59.9586 29.9306C60.3556 29.9292 60.736 29.7689 61.0169 29.4846L61.2476 29.7269Z" fill="#555554"/>
<path d="M62.435 25.4554C62.435 25.5316 62.4051 25.6047 62.3519 25.6586C62.2987 25.7124 62.2266 25.7427 62.1514 25.7427C62.0761 25.7427 62.004 25.7124 61.9508 25.6586C61.8976 25.6047 61.8677 25.5316 61.8677 25.4554C61.8677 25.3792 61.8976 25.3061 61.9508 25.2522C62.004 25.1983 62.0761 25.168 62.1514 25.168C62.2266 25.168 62.2987 25.1983 62.3519 25.2522C62.4051 25.3061 62.435 25.3792 62.435 25.4554ZM61.9672 26.6155V30.2372H62.3207V26.624L61.9672 26.6155Z" fill="#555554"/>
<path d="M63.2414 28.436C63.2291 28.1905 63.267 27.9451 63.3528 27.7151C63.4386 27.4852 63.5704 27.2757 63.74 27.0999C63.9095 26.9241 64.1132 26.7857 64.3381 26.6935C64.563 26.6013 64.8043 26.5572 65.0469 26.564C65.2893 26.5575 65.5305 26.6018 65.7553 26.6942C65.98 26.7865 66.1835 26.9249 66.353 27.1006C66.5226 27.2764 66.6544 27.4857 66.7403 27.7155C66.8262 27.9453 66.8644 28.1906 66.8523 28.436C66.864 28.68 66.8254 28.9238 66.739 29.1519C66.6525 29.38 66.5202 29.5874 66.3504 29.7608C66.1806 29.9343 65.977 30.07 65.7526 30.1594C65.5281 30.2488 65.2878 30.2899 65.0469 30.2801C64.8058 30.2903 64.5654 30.2494 64.3408 30.1601C64.1162 30.0708 63.9125 29.9351 63.7426 29.7616C63.5727 29.588 63.4404 29.3805 63.3541 29.1523C63.2678 28.9241 63.2294 28.6801 63.2414 28.436ZM66.5052 28.436C66.516 28.2363 66.4861 28.0365 66.4174 27.849C66.3487 27.6615 66.2426 27.4904 66.1058 27.3462C65.9691 27.202 65.8045 27.0878 65.6223 27.0108C65.4401 26.9338 65.2443 26.8956 65.0469 26.8985C64.8493 26.8953 64.6532 26.9333 64.4708 27.0102C64.2884 27.087 64.1235 27.2012 63.9865 27.3454C63.8495 27.4896 63.7433 27.6609 63.6745 27.8485C63.6056 28.0362 63.5756 28.2361 63.5864 28.436C63.5756 28.6342 63.6059 28.8324 63.6752 29.0181C63.7445 29.2037 63.8513 29.3726 63.9888 29.5139C64.1263 29.6553 64.2915 29.7659 64.4737 29.8388C64.6559 29.9116 64.8511 29.9451 65.0469 29.937C65.2425 29.9451 65.4377 29.9117 65.6198 29.8388C65.8019 29.7659 65.9669 29.6552 66.1043 29.5138C66.2416 29.3725 66.3483 29.2035 66.4173 29.0179C66.4864 28.8323 66.5163 28.6341 66.5052 28.436Z" fill="#555554"/>
<path d="M68.0101 26.6283V27.2716C68.1392 27.0488 68.3254 26.8655 68.549 26.7413C68.7726 26.6171 69.0252 26.5566 69.2801 26.5661C70.2304 26.5661 70.8844 27.1558 70.8844 28.1551V30.2372H70.531V28.168C70.531 27.351 70.0357 26.9157 69.261 26.9221C69.093 26.9207 68.9264 26.9541 68.7715 27.0203C68.6167 27.0864 68.4768 27.184 68.3605 27.3068C68.2441 27.4297 68.1538 27.5754 68.095 27.7349C68.0362 27.8944 68.0102 28.0644 68.0186 28.2344V30.2372H67.6651V26.6369L68.0101 26.6283Z" fill="#555554"/>
<path d="M75.2171 26.6283V30.2373H74.8657V29.4717C74.7163 29.7265 74.5032 29.9368 74.2479 30.0814C73.9926 30.226 73.7041 30.2997 73.4116 30.2951C73.1712 30.299 72.9326 30.2535 72.7101 30.1611C72.4876 30.0688 72.2859 29.9317 72.1173 29.758C71.9487 29.5844 71.8166 29.3779 71.7291 29.151C71.6416 28.9241 71.6005 28.6816 71.6083 28.4382C71.6008 28.1954 71.6421 27.9536 71.7299 27.7275C71.8176 27.5015 71.9499 27.2959 72.1186 27.1233C72.2874 26.9508 72.489 26.8148 72.7113 26.7238C72.9336 26.6328 73.1719 26.5887 73.4116 26.594C73.7056 26.5851 73.9964 26.6577 74.2527 26.8039C74.5089 26.9502 74.7209 27.1645 74.8657 27.4239V26.6369L75.2171 26.6283ZM71.9596 28.4296C71.9521 28.6262 71.9843 28.8223 72.0542 29.0059C72.1241 29.1895 72.2303 29.3566 72.3663 29.4972C72.5022 29.6377 72.6651 29.7486 72.8448 29.8232C73.0246 29.8977 73.2174 29.9343 73.4116 29.9306C75.3906 29.9306 75.3906 26.9285 73.4116 26.9285C73.2172 26.924 73.0239 26.9599 72.8437 27.0341C72.6635 27.1083 72.5003 27.2192 72.3642 27.3599C72.2281 27.5006 72.1219 27.6682 72.0523 27.8522C71.9827 28.0362 71.9512 28.2327 71.9596 28.4296Z" fill="#555554"/>
<path d="M76.5272 25.1273V30.2373H76.1759V25.1359L76.5272 25.1273Z" fill="#555554"/>
<path d="M81.9309 27.2845C81.7796 27.1508 81.6038 27.0486 81.4135 26.9838C81.2231 26.9191 81.0221 26.893 80.8218 26.9071C80.2694 26.9071 79.736 27.1108 79.7508 27.5697C79.7656 28.0286 80.3858 28.1444 80.8303 28.2259C81.4652 28.3352 82.3331 28.4403 82.2971 29.2809C82.2759 30.0764 81.4631 30.2866 80.8366 30.2866C80.2101 30.2866 79.5921 30.0464 79.2831 29.5661L79.5413 29.3323C79.6949 29.5316 79.893 29.6911 80.1192 29.7978C80.3455 29.9044 80.5936 29.9551 80.843 29.9456C81.2663 29.9456 81.9309 29.8277 81.9521 29.2594C81.9669 28.7427 81.3764 28.6397 80.7943 28.5454C80.1022 28.4296 79.4206 28.2988 79.4122 27.5761C79.4037 26.8535 80.1022 26.564 80.8218 26.5704C81.3088 26.5492 81.7846 26.7225 82.1468 27.0529L81.9309 27.2845Z" fill="#555554"/>
<path d="M82.9151 28.436C82.9031 28.1906 82.9412 27.9453 83.0271 27.7155C83.1131 27.4857 83.2449 27.2764 83.4144 27.1006C83.5839 26.9249 83.7874 26.7865 84.0122 26.6942C84.237 26.6018 84.4781 26.5575 84.7206 26.564C84.9631 26.5572 85.2044 26.6013 85.4293 26.6935C85.6542 26.7857 85.8579 26.9241 86.0275 27.0999C86.197 27.2757 86.3289 27.4852 86.4147 27.7151C86.5005 27.9451 86.5384 28.1905 86.526 28.436C86.538 28.6801 86.4996 28.9241 86.4133 29.1523C86.327 29.3805 86.1947 29.588 86.0248 29.7616C85.8549 29.9351 85.6512 30.0708 85.4266 30.1601C85.2021 30.2494 84.9616 30.2903 84.7206 30.2801C84.4796 30.2899 84.2393 30.2488 84.0149 30.1594C83.7905 30.07 83.5869 29.9343 83.417 29.7608C83.2472 29.5874 83.1149 29.38 83.0285 29.1519C82.9421 28.9238 82.9035 28.68 82.9151 28.436ZM86.181 28.436C86.1918 28.2361 86.1618 28.0362 86.093 27.8485C86.0242 27.6609 85.918 27.4896 85.781 27.3454C85.6439 27.2012 85.4791 27.087 85.2967 27.0102C85.1142 26.9333 84.9181 26.8953 84.7206 26.8985C84.5232 26.8956 84.3273 26.9338 84.1451 27.0108C83.963 27.0878 83.7984 27.202 83.6616 27.3462C83.5248 27.4904 83.4188 27.6615 83.3501 27.849C83.2814 28.0365 83.2515 28.2363 83.2623 28.436C83.2512 28.6341 83.2811 28.8323 83.3502 29.0179C83.4192 29.2035 83.5258 29.3725 83.6632 29.5138C83.8005 29.6552 83.9656 29.7659 84.1477 29.8388C84.3298 29.9117 84.5249 29.9451 84.7206 29.937C84.9163 29.9451 85.1115 29.9116 85.2937 29.8388C85.476 29.7659 85.6411 29.6553 85.7786 29.5139C85.9161 29.3726 86.023 29.2037 86.0923 29.0181C86.1616 28.8324 86.1918 28.6342 86.181 28.436Z" fill="#555554"/>
<path d="M87.6943 25.1273V27.4153C87.8356 27.1456 88.0503 26.9227 88.3129 26.7729C88.5756 26.6231 88.8751 26.5529 89.176 26.5704C90.1686 26.5704 90.9603 27.2416 90.9603 28.4296C90.9603 29.6176 90.1771 30.2866 89.1844 30.2866C88.8842 30.2918 88.5881 30.2149 88.3273 30.0639C88.0666 29.913 87.8508 29.6936 87.7028 29.4289V30.2223H87.3578V25.1209L87.6943 25.1273ZM87.6943 28.421C87.6838 28.6193 87.7138 28.8176 87.7826 29.0036C87.8514 29.1895 87.9574 29.359 88.0939 29.5014C88.2305 29.6438 88.3947 29.756 88.5762 29.831C88.7577 29.906 88.9525 29.9421 89.1484 29.9371C89.9464 29.9371 90.6004 29.4267 90.6004 28.436C90.6004 27.4453 89.9464 26.92 89.1484 26.92C88.9539 26.9154 88.7605 26.9513 88.5802 27.0255C88.3999 27.0997 88.2366 27.2105 88.1003 27.3512C87.964 27.4919 87.8577 27.6595 87.7878 27.8435C87.718 28.0275 87.6862 28.224 87.6943 28.421Z" fill="#555554"/>
<path d="M92.1392 26.6283L92.1519 27.2716C92.2639 27.0559 92.4348 26.8773 92.6442 26.7571C92.8536 26.637 93.0926 26.5804 93.3329 26.594C93.602 26.5897 93.8666 26.6641 94.0949 26.8085L93.9361 27.1001C93.7542 26.9888 93.5454 26.9309 93.3329 26.9328C93.1781 26.9337 93.025 26.9654 92.8823 27.0262C92.7396 27.087 92.6101 27.1757 92.5012 27.2872C92.3923 27.3987 92.3061 27.5309 92.2477 27.6761C92.1892 27.8213 92.1595 27.9768 92.1604 28.1337V30.2373H91.8069V26.6369L92.1392 26.6283Z" fill="#555554"/>
<path d="M94.4272 28.4296C94.4206 28.1863 94.4625 27.9443 94.5504 27.7178C94.6383 27.4914 94.7704 27.2852 94.9388 27.1116C95.1071 26.9381 95.3083 26.8007 95.5302 26.7077C95.7522 26.6147 95.9904 26.568 96.2305 26.5704C97.2317 26.5704 98.1227 27.1901 97.9872 28.5968H94.7849C94.8062 28.9664 94.9694 29.3128 95.2396 29.562C95.5097 29.8113 95.8654 29.9436 96.2305 29.9306C96.6983 29.9306 97.2464 29.7398 97.511 29.3838L97.7629 29.5982C97.5743 29.8218 97.3389 29.9999 97.0738 30.1197C96.8088 30.2395 96.5207 30.298 96.2305 30.2909C95.9884 30.2999 95.7471 30.2576 95.522 30.1668C95.2969 30.076 95.093 29.9387 94.9233 29.7635C94.7536 29.5883 94.6218 29.3792 94.5364 29.1495C94.451 28.9199 94.4138 28.6746 94.4272 28.4296ZM97.6697 28.2838C97.6697 27.3939 97.0877 26.8985 96.2305 26.8985C95.8586 26.8921 95.499 27.0335 95.2288 27.2924C94.9586 27.5513 94.7992 27.9072 94.7849 28.2838H97.6697Z" fill="#555554"/>
<path d="M0.0211607 81.103C0.0211607 80.2881 0.787357 80.0308 1.4689 80.0308C2.15044 80.0308 2.92088 80.3203 2.92511 81.1459C2.92511 81.9286 2.14833 82.2438 1.47949 82.2438C0.929178 82.2438 0.285734 82.381 0.285734 83.0372V83.6312H2.887V83.9164H0V83.0586C0 82.2009 0.772541 81.9865 1.4689 81.9865C1.95994 81.9865 2.6563 81.802 2.6563 81.1566C2.6563 80.5112 1.98534 80.2989 1.4689 80.2989C0.952451 80.2989 0.306894 80.4726 0.306894 81.1073L0.0211607 81.103Z" fill="#555554"/>
<path d="M3.52832 81.5404C3.52832 79.5334 6.4217 79.5398 6.4217 81.5404V82.4539C6.4217 84.4546 3.52832 84.461 3.52832 82.4539V81.5404ZM3.81405 82.4539C3.81405 82.7667 3.93671 83.0667 4.15503 83.2879C4.37334 83.5091 4.66943 83.6333 4.97818 83.6333C5.28692 83.6333 5.58303 83.5091 5.80135 83.2879C6.01966 83.0667 6.1423 82.7667 6.1423 82.4539V81.5404C6.1423 79.9108 3.81405 79.9065 3.81405 81.5404V82.4539Z" fill="#555554"/>
<path d="M7.67262 80.3975V81.2124H8.5785V81.4375H7.67262V83.0822C7.67262 83.4489 7.74881 83.7062 8.16366 83.7062C8.30661 83.6995 8.44654 83.6623 8.57426 83.5969L8.66529 83.8113C8.51019 83.8939 8.33875 83.94 8.16366 83.9464C7.59641 83.9464 7.41438 83.6076 7.41438 83.0779V81.4332H6.84079V81.2081H7.40805V80.4211L7.67262 80.3975Z" fill="#555554"/>
<path d="M9.44209 80.0866V81.7163C9.53885 81.5463 9.67931 81.406 9.84853 81.3105C10.0177 81.2149 10.2094 81.1677 10.403 81.1738C11.148 81.1738 11.5206 81.6605 11.5206 82.366V83.9142H11.2602V82.366C11.2602 81.8085 11.002 81.4311 10.403 81.4311C10.2746 81.4298 10.1473 81.455 10.0288 81.5054C9.91043 81.5558 9.80342 81.6301 9.71441 81.7239C9.6254 81.8177 9.55627 81.9289 9.51125 82.0508C9.46624 82.1726 9.4463 82.3025 9.45265 82.4325V83.9142H9.18808V80.0866H9.44209Z" fill="#555554"/>
<path d="M13.7472 83.9142V80.0866H14.0372V83.9142H13.7472Z" fill="#555554"/>
<path d="M15.0743 81.2124V81.7013C15.1708 81.5343 15.3101 81.397 15.4774 81.3037C15.6447 81.2105 15.8338 81.1648 16.0247 81.1716C16.738 81.1716 17.229 81.6155 17.229 82.3639V83.9228H16.9644V82.3682C16.9644 81.757 16.5919 81.4289 16.0141 81.4332C15.888 81.4322 15.763 81.4573 15.6468 81.5069C15.5305 81.5565 15.4255 81.6296 15.3381 81.7217C15.2508 81.8138 15.1829 81.9231 15.1386 82.0427C15.0943 82.1623 15.0746 82.2899 15.0807 82.4175V83.9185H14.8161V81.2167L15.0743 81.2124Z" fill="#555554"/>
<path d="M18.4143 80.3975V81.2124H19.3287V81.4375H18.4206V83.0822C18.4206 83.4489 18.4968 83.7062 18.9117 83.7062C19.0547 83.6998 19.1947 83.6625 19.3223 83.5969L19.4154 83.8113C19.2595 83.8936 19.0874 83.9398 18.9117 83.9464C18.3466 83.9464 18.1624 83.6076 18.1624 83.0779V81.4332H17.5952V81.2081H18.1624V80.4211L18.4143 80.3975Z" fill="#555554"/>
<path d="M19.7795 82.559C19.7746 82.3764 19.8062 82.1947 19.8723 82.0248C19.9384 81.8549 20.0376 81.7002 20.1641 81.5701C20.2906 81.44 20.4417 81.337 20.6084 81.2674C20.775 81.1979 20.9539 81.1631 21.1341 81.1652C21.8855 81.1652 22.5543 81.6283 22.4506 82.6833H20.0504C20.0684 82.9598 20.1912 83.2184 20.3933 83.4051C20.5953 83.5918 20.8608 83.692 21.1341 83.6847C21.3139 83.6905 21.4929 83.6569 21.6587 83.5862C21.8245 83.5155 21.9734 83.4094 22.095 83.2752L22.2834 83.4274C22.1422 83.5954 21.9657 83.7291 21.7668 83.8189C21.568 83.9087 21.3518 83.9523 21.1341 83.9464C20.9532 83.9531 20.7728 83.9217 20.6045 83.8542C20.4361 83.7866 20.2835 83.6844 20.1561 83.554C20.0288 83.4236 19.9296 83.2678 19.8647 83.0965C19.7999 82.9253 19.7709 82.7422 19.7795 82.559ZM22.2136 82.4496C22.2136 81.7827 21.7776 81.4096 21.1341 81.4096C20.8545 81.4027 20.5835 81.5082 20.3804 81.7031C20.1774 81.898 20.0587 82.1664 20.0504 82.4496H22.2136Z" fill="#555554"/>
<path d="M23.384 81.2123V81.6927C23.468 81.5311 23.596 81.3973 23.7528 81.3072C23.9097 81.2171 24.0887 81.1745 24.2687 81.1845C24.471 81.1807 24.6701 81.2358 24.8424 81.3431L24.7238 81.5576C24.5865 81.4741 24.4289 81.431 24.2687 81.4332C24.0345 81.4349 23.8104 81.5307 23.6458 81.6995C23.4811 81.8684 23.3892 82.0965 23.3904 82.3338V83.9099H23.1385V81.2081L23.384 81.2123Z" fill="#555554"/>
<path d="M25.509 81.2124V81.7013C25.6056 81.5343 25.7448 81.397 25.9122 81.3037C26.0795 81.2105 26.2686 81.1648 26.4594 81.1716C27.1727 81.1716 27.6637 81.6155 27.6637 82.3639V83.9228H27.3992V82.3682C27.3992 81.757 27.0267 81.4289 26.4488 81.4332C26.3227 81.4322 26.1977 81.4573 26.0815 81.5069C25.9653 81.5565 25.8603 81.6296 25.7729 81.7217C25.6855 81.8138 25.6176 81.9231 25.5734 82.0427C25.5291 82.1623 25.5094 82.2899 25.5154 82.4175V83.9185H25.2551V81.2167L25.509 81.2124Z" fill="#555554"/>
<path d="M30.917 81.2123V83.9142H30.6524V83.3395C30.5403 83.5305 30.3806 83.6881 30.1892 83.7966C29.9978 83.905 29.7816 83.9604 29.5623 83.9571C29.3818 83.9601 29.2026 83.9259 29.0355 83.8567C28.8685 83.7874 28.717 83.6845 28.5903 83.5542C28.4636 83.4238 28.3644 83.2688 28.2987 83.0985C28.2329 82.9282 28.202 82.7461 28.2077 82.5633C28.2022 82.381 28.2334 82.1996 28.2994 82.03C28.3654 81.8603 28.4648 81.7061 28.5915 81.5767C28.7183 81.4473 28.8697 81.3454 29.0366 81.2772C29.2036 81.209 29.3824 81.176 29.5623 81.1802C29.7827 81.1735 30.0007 81.2278 30.1928 81.3374C30.3849 81.447 30.5438 81.6077 30.6524 81.802V81.2123H30.917ZM28.4723 82.559C28.4659 82.707 28.4895 82.8548 28.5417 82.9933C28.5938 83.1317 28.6735 83.2579 28.7756 83.364C28.8777 83.4701 29.0002 83.5538 29.1355 83.6101C29.2708 83.6664 29.4161 83.694 29.5623 83.6912C31.0439 83.6912 31.0439 81.4332 29.5623 81.4332C29.4161 81.4286 29.2706 81.4547 29.1349 81.5099C28.9991 81.5651 28.8762 81.6483 28.7738 81.754C28.6713 81.8598 28.5917 81.986 28.5398 82.1245C28.4879 82.2631 28.4649 82.411 28.4723 82.559Z" fill="#555554"/>
<path d="M32.1297 80.3975V81.2124H33.0378V81.4375H32.1297V83.0822C32.1297 83.4489 32.206 83.7062 32.6208 83.7062C32.7638 83.6998 32.9038 83.6625 33.0314 83.5969L33.1224 83.8113C32.9673 83.8939 32.7959 83.94 32.6208 83.9464C32.0557 83.9464 31.8715 83.6076 31.8715 83.0779V81.4332H31.3043V81.2081H31.8715V80.4211L32.1297 80.3975Z" fill="#555554"/>
<path d="M33.9966 80.331C33.9966 80.3879 33.9743 80.4425 33.9346 80.4827C33.8949 80.5229 33.8411 80.5455 33.7849 80.5455C33.7288 80.5455 33.6749 80.5229 33.6353 80.4827C33.5956 80.4425 33.5733 80.3879 33.5733 80.331C33.5733 80.2742 33.5956 80.2196 33.6353 80.1794C33.6749 80.1392 33.7288 80.1166 33.7849 80.1166C33.8411 80.1166 33.8949 80.1392 33.9346 80.1794C33.9743 80.2196 33.9966 80.2742 33.9966 80.331ZM33.6452 81.2016V83.9142H33.9098V81.2016H33.6452Z" fill="#555554"/>
<path d="M34.6019 82.559C34.5928 82.3748 34.6214 82.1908 34.6858 82.0183C34.7502 81.8459 34.8492 81.6888 34.9764 81.5569C35.1036 81.425 35.2563 81.3212 35.425 81.2519C35.5936 81.1827 35.7746 81.1495 35.9566 81.1545C36.1392 81.1483 36.3211 81.1806 36.4908 81.2493C36.6605 81.318 36.8142 81.4217 36.9423 81.5537C37.0704 81.6857 37.1701 81.8432 37.2351 82.0162C37.3 82.1893 37.3288 82.3741 37.3196 82.559C37.3286 82.7421 37.2998 82.9251 37.2351 83.0964C37.1703 83.2676 37.071 83.4232 36.9435 83.5534C36.8161 83.6835 36.6632 83.7853 36.4947 83.8522C36.3262 83.9192 36.1458 83.9498 35.965 83.9421C35.7835 83.951 35.6022 83.9213 35.4327 83.8549C35.2632 83.7886 35.1092 83.687 34.9808 83.5567C34.8524 83.4264 34.7524 83.2703 34.6871 83.0985C34.6219 82.9266 34.5929 82.7429 34.6019 82.559ZM37.0508 82.559C37.0587 82.4092 37.0361 82.2594 36.9844 82.1188C36.9328 81.9783 36.8532 81.8499 36.7506 81.7418C36.648 81.6336 36.5246 81.548 36.388 81.4901C36.2515 81.4322 36.1046 81.4034 35.9566 81.4053C35.8083 81.4031 35.6612 81.4317 35.5244 81.4894C35.3876 81.5472 35.2639 81.6328 35.1611 81.741C35.0583 81.8492 34.9785 81.9776 34.9267 82.1183C34.875 82.259 34.8523 82.409 34.8602 82.559C34.8533 82.7072 34.8769 82.8552 34.9294 82.9937C34.982 83.1322 35.0623 83.2581 35.1654 83.3636C35.2684 83.469 35.392 83.5516 35.5282 83.6061C35.6643 83.6607 35.8102 83.686 35.9566 83.6805C36.1027 83.6857 36.2484 83.6601 36.3843 83.6055C36.5202 83.5508 36.6435 83.4681 36.7463 83.3627C36.8491 83.2574 36.9293 83.1315 36.9817 82.9932C37.0341 82.8549 37.0576 82.707 37.0508 82.559Z" fill="#555554"/>
<path d="M38.1789 81.2124V81.7013C38.2753 81.5347 38.4142 81.3975 38.5811 81.3043C38.748 81.211 38.9367 81.1652 39.1272 81.1716C39.8405 81.1716 40.3315 81.6155 40.3315 82.3639V83.9228H40.0712V82.3682C40.0712 81.757 39.6986 81.4289 39.1208 81.4332C38.9947 81.4322 38.8697 81.4573 38.7535 81.5069C38.6373 81.5565 38.5323 81.6296 38.4449 81.7217C38.3575 81.8138 38.2896 81.9231 38.2453 82.0427C38.2011 82.1623 38.1813 82.2899 38.1874 82.4175V83.9185H37.9228V81.2166L38.1789 81.2124Z" fill="#555554"/>
<path d="M43.5847 81.2124V83.9142H43.3201V83.3395C43.2081 83.5305 43.0483 83.6881 42.857 83.7966C42.6656 83.905 42.4493 83.9604 42.2301 83.9571C42.0496 83.9601 41.8704 83.9259 41.7033 83.8567C41.5362 83.7874 41.3848 83.6845 41.2581 83.5542C41.1314 83.4238 41.0322 83.2688 40.9664 83.0985C40.9007 82.9282 40.8697 82.7461 40.8755 82.5633C40.87 82.381 40.9012 82.1996 40.9672 82.03C41.0332 81.8603 41.1326 81.7061 41.2593 81.5767C41.3861 81.4473 41.5375 81.3454 41.7044 81.2772C41.8713 81.209 42.0502 81.176 42.2301 81.1802C42.4505 81.1732 42.6686 81.2275 42.8607 81.3371C43.0529 81.4467 43.2117 81.6075 43.3201 81.802V81.2124H43.5847ZM41.1401 82.5633C41.1337 82.7113 41.1573 82.8591 41.2094 82.9976C41.2616 83.136 41.3412 83.2622 41.4433 83.3682C41.5455 83.4743 41.668 83.5581 41.8033 83.6144C41.9386 83.6707 42.0838 83.6983 42.2301 83.6955C43.7117 83.6955 43.7117 81.4375 42.2301 81.4375C42.0843 81.4329 41.9391 81.4589 41.8037 81.5139C41.6682 81.5688 41.5455 81.6516 41.4431 81.7569C41.3408 81.8622 41.261 81.9878 41.2088 82.1258C41.1567 82.2639 41.1333 82.4113 41.1401 82.559V82.5633Z" fill="#555554"/>
<path d="M44.5668 80.0866V83.9142H44.3044V80.0866H44.5668Z" fill="#555554"/>
<path d="M50.47 82.0208C50.4594 83.0114 49.8604 84 48.5333 84C47.2062 84 46.5903 83.0329 46.5903 82.0272C46.5903 81.0215 47.2252 80.0094 48.5333 80.0094C49.8413 80.0094 50.4805 81.0215 50.47 82.0208ZM47.2951 82.0379C47.312 82.6662 47.6464 83.3395 48.5375 83.3395C49.4286 83.3395 49.7609 82.6619 49.7715 82.0315C49.7821 81.401 49.4265 80.6655 48.5375 80.6655C47.6486 80.6655 47.2676 81.3925 47.2908 82.0379H47.2951Z" fill="#555554"/>
<path d="M51.6616 80.4575C51.6543 80.5569 51.6103 80.6498 51.5382 80.7176C51.4662 80.7853 51.3715 80.823 51.2732 80.823C51.1749 80.823 51.0802 80.7853 51.0081 80.7176C50.9361 80.6498 50.892 80.5569 50.8848 80.4575C50.892 80.3582 50.9361 80.2653 51.0081 80.1975C51.0802 80.1297 51.1749 80.092 51.2732 80.092C51.3715 80.092 51.4662 80.1297 51.5382 80.1975C51.6103 80.2653 51.6543 80.3582 51.6616 80.4575ZM50.9441 81.2059V83.9142H51.6023V81.2059H50.9441Z" fill="#555554"/>
<path d="M52.849 80.0909V83.9142H52.195V80.0909H52.849Z" fill="#555554"/>
<path d="M56.3456 82.7863H55.2767V83.9142H54.5634V80.0866C55.1582 80.0866 55.7509 80.0866 56.3456 80.0866C58.1913 80.0801 58.1955 82.7863 56.3456 82.7863ZM55.2767 82.1258H56.3456C56.4368 82.131 56.528 82.1173 56.6137 82.0856C56.6994 82.0538 56.7779 82.0047 56.8442 81.9411C56.9106 81.8776 56.9634 81.801 56.9995 81.7161C57.0356 81.6311 57.0542 81.5396 57.0542 81.4471C57.0542 81.3547 57.0356 81.2632 56.9995 81.1782C56.9634 81.0933 56.9106 81.0167 56.8442 80.9532C56.7779 80.8896 56.6994 80.8405 56.6137 80.8087C56.528 80.777 56.4368 80.7633 56.3456 80.7685H55.2767V82.1258Z" fill="#555554"/>
<path d="M60.1597 81.2188H60.7946V83.9142H60.1787L60.147 83.5197C60.0545 83.6666 59.9268 83.7873 59.7758 83.8705C59.6248 83.9538 59.4553 83.9969 59.2834 83.9957C58.496 83.9957 57.9119 83.5089 57.9119 82.5633C57.9119 81.6176 58.5214 81.1459 59.3003 81.1523C59.4657 81.1453 59.6302 81.181 59.7783 81.256C59.9264 81.3311 60.0532 81.4429 60.147 81.5812L60.1597 81.2188ZM58.5616 82.5633C58.5551 82.6709 58.5708 82.7788 58.6079 82.8799C58.645 82.981 58.7026 83.0732 58.777 83.1503C58.8514 83.2275 58.9409 83.288 59.0398 83.328C59.1387 83.368 59.2447 83.3865 59.3511 83.3824C60.3861 83.3824 60.3861 81.7484 59.3511 81.7484C59.2453 81.7438 59.1397 81.7616 59.0411 81.8009C58.9425 81.8401 58.8532 81.8998 58.7788 81.9762C58.7044 82.0526 58.6467 82.1439 58.6093 82.2443C58.5719 82.3447 58.5556 82.4519 58.5616 82.559V82.5633Z" fill="#555554"/>
<path d="M61.999 80.0909V83.9142H61.3471V80.0909H61.999Z" fill="#555554"/>
<path d="M64.3463 83.9142V82.4689C64.3463 82.1151 64.1621 81.7913 63.8023 81.7913C63.4425 81.7913 63.2351 82.1151 63.2351 82.4689V83.9142H62.5768V81.2123H63.1864L63.2351 81.5404C63.3075 81.4199 63.4111 81.3217 63.5345 81.2563C63.6579 81.191 63.7966 81.1609 63.9357 81.1694C64.1025 81.159 64.2684 81.2018 64.41 81.2918C64.5516 81.3818 64.6618 81.5145 64.7252 81.6712C64.8137 81.5138 64.9438 81.3845 65.1008 81.2978C65.2578 81.211 65.4356 81.1703 65.6141 81.1802C66.3698 81.1802 66.7423 81.6498 66.7423 82.4668V83.9228H66.084V82.4668C66.084 82.113 65.938 81.8106 65.5824 81.8106C65.5007 81.8143 65.4206 81.8348 65.3468 81.8706C65.2731 81.9065 65.2073 81.9571 65.1533 82.0194C65.0993 82.0817 65.0584 82.1543 65.0328 82.2331C65.0072 82.3118 64.9976 82.3949 65.0046 82.4775V83.9228L64.3463 83.9142Z" fill="#555554"/>
<path d="M71.8792 83.4317C71.6892 83.6182 71.4644 83.7644 71.2181 83.862C70.9717 83.9595 70.7086 84.0065 70.4442 84C69.0409 84 68.4461 83.0222 68.4419 82.0272C68.4377 81.0322 69.0769 80.0094 70.4442 80.0094C70.702 80.0093 70.9572 80.0611 71.1952 80.1615C71.4331 80.262 71.6491 80.4093 71.8305 80.5948L71.3543 81.058C71.1094 80.8211 70.7827 80.691 70.4442 80.6956C70.27 80.6865 70.0958 80.7148 69.9331 80.7785C69.7704 80.8423 69.6229 80.9401 69.5 81.0656C69.3772 81.191 69.2818 81.3413 69.2202 81.5067C69.1586 81.672 69.1321 81.8486 69.1425 82.0251C69.1425 82.6684 69.5086 83.3117 70.4442 83.3117C70.7974 83.309 71.1365 83.1702 71.3924 82.9235L71.8792 83.4317Z" fill="#555554"/>
<path d="M74.8192 82.559C74.8276 82.7458 74.7975 82.9323 74.7308 83.1067C74.6641 83.2811 74.5624 83.4395 74.432 83.5718C74.3015 83.7041 74.1453 83.8075 73.9733 83.8753C73.8013 83.9431 73.6172 83.9739 73.4328 83.9657C73.2486 83.9739 73.0647 83.9432 72.8929 83.8753C72.721 83.8075 72.5651 83.704 72.435 83.5716C72.3049 83.4392 72.2035 83.2808 72.1374 83.1064C72.0712 82.932 72.0416 82.7456 72.0507 82.559C72.043 82.3734 72.0732 82.1881 72.1395 82.0149C72.2058 81.8417 72.3067 81.6842 72.4358 81.5524C72.565 81.4205 72.7197 81.3171 72.8901 81.2486C73.0606 81.1801 73.2432 81.1481 73.4264 81.1544C73.6105 81.1479 73.794 81.1797 73.9655 81.2479C74.137 81.3161 74.2928 81.4192 74.4233 81.5508C74.5539 81.6825 74.6564 81.8399 74.7245 82.0133C74.7925 82.1867 74.8248 82.3724 74.8192 82.559ZM72.7026 82.559C72.694 82.6603 72.7065 82.7623 72.739 82.8584C72.7716 82.9546 72.8236 83.0428 72.8917 83.1175C72.9598 83.1922 73.0426 83.2516 73.1346 83.2921C73.2267 83.3325 73.3261 83.353 73.4264 83.3524C73.5267 83.3531 73.626 83.3325 73.718 83.2921C73.81 83.2516 73.8926 83.1921 73.9606 83.1174C74.0285 83.0427 74.0803 82.9545 74.1126 82.8583C74.1449 82.7621 74.1571 82.6602 74.1482 82.559C74.153 82.4585 74.1381 82.358 74.1044 82.2633C74.0706 82.1687 74.0187 82.0818 73.9516 82.0076C73.8845 81.9334 73.8035 81.8734 73.7134 81.8312C73.6232 81.7889 73.5257 81.7651 73.4264 81.7613C73.3266 81.7627 73.2282 81.7849 73.1371 81.8264C73.0461 81.8679 72.9644 81.9279 72.8972 82.0027C72.8299 82.0775 72.7785 82.1654 72.7461 82.2611C72.7138 82.3568 72.7011 82.4581 72.7089 82.559H72.7026Z" fill="#555554"/>
<path d="M77.23 83.9142V82.5032C77.23 82.0915 77.0183 81.7806 76.595 81.7806C76.5009 81.7833 76.4083 81.8051 76.3228 81.8449C76.2372 81.8846 76.1605 81.9414 76.097 82.0118C76.0336 82.0823 75.9849 82.1649 75.9537 82.2549C75.9225 82.3449 75.9095 82.4403 75.9155 82.5354V83.9142H75.2615V81.2123H75.8415L75.8838 81.579C75.9944 81.4539 76.1293 81.3533 76.2801 81.2836C76.4309 81.2138 76.5943 81.1764 76.7601 81.1737C77.395 81.1737 77.8861 81.6498 77.8861 82.4968V83.9142H77.23Z" fill="#555554"/>
<path d="M78.6713 83.9142V81.8406H78.1697V81.2552H78.6671V81.0751C78.6557 80.936 78.6739 80.7961 78.7204 80.6647C78.7669 80.5333 78.8407 80.4136 78.9368 80.3136C79.0329 80.2136 79.1491 80.1357 79.2774 80.085C79.4058 80.0344 79.5434 80.0123 79.681 80.0201C79.9266 80.0225 80.1663 80.0969 80.371 80.2345L80.1297 80.732C80.0116 80.6455 79.871 80.5962 79.7254 80.5905C79.4968 80.5905 79.3254 80.7427 79.3254 81.0708V81.2509H80.1085V81.8364H79.3254V83.9099L78.6713 83.9142Z" fill="#555554"/>
<path d="M81.1901 82.8035C81.2345 83.1358 81.5203 83.3781 81.9838 83.3781C82.2436 83.3815 82.4962 83.2919 82.6971 83.1251L83.1204 83.554C82.8072 83.8405 82.3972 83.994 81.9753 83.9828C81.0589 83.9828 80.5128 83.4081 80.5128 82.544C80.5038 82.3544 80.5343 82.1651 80.6025 81.9883C80.6707 81.8116 80.7749 81.6514 80.9083 81.5182C81.0418 81.3851 81.2014 81.2819 81.3769 81.2155C81.5524 81.1492 81.7397 81.121 81.9267 81.133C82.8177 81.133 83.3723 81.6906 83.2707 82.8013L81.1901 82.8035ZM82.6378 82.2502C82.5934 81.9007 82.3246 81.727 81.9457 81.727C81.7811 81.714 81.617 81.759 81.4813 81.8543C81.3456 81.9496 81.2464 82.0895 81.2007 82.2502H82.6378Z" fill="#555554"/>
<path d="M84.384 81.2188L84.4327 81.5297C84.5091 81.4001 84.6203 81.2952 84.7534 81.2272C84.8864 81.1593 85.0358 81.131 85.1841 81.1459C85.4364 81.1418 85.681 81.2336 85.8699 81.4032L85.5714 81.9822C85.5075 81.9231 85.4328 81.8773 85.3514 81.8475C85.2701 81.8177 85.1837 81.8045 85.0973 81.8085C85.0072 81.8008 84.9165 81.8133 84.8317 81.8451C84.7469 81.8769 84.67 81.9273 84.6066 81.9925C84.5432 82.0578 84.4947 82.1365 84.4646 82.2229C84.4346 82.3093 84.4237 82.4014 84.4327 82.4925V83.9142H83.7744V81.2188H84.384Z" fill="#555554"/>
<path d="M86.6784 82.8034C86.7207 83.1358 87.0065 83.3781 87.4721 83.3781C87.7312 83.3816 87.9832 83.2919 88.1833 83.1251L88.6066 83.554C88.2935 83.8406 87.8834 83.9942 87.4615 83.9828C86.5451 83.9828 85.999 83.4081 85.999 82.544C85.9903 82.3543 86.0211 82.1649 86.0895 81.9882C86.1579 81.8114 86.2623 81.6512 86.3959 81.5181C86.5295 81.385 86.6893 81.2819 86.8649 81.2155C87.0405 81.1491 87.2279 81.121 87.415 81.133C88.3039 81.133 88.8606 81.6905 88.7569 82.8013L86.6784 82.8034ZM88.124 82.2502C88.0817 81.9007 87.8108 81.727 87.434 81.727C87.2693 81.7136 87.1051 81.7584 86.9693 81.8538C86.8334 81.9491 86.7344 82.0892 86.689 82.2502H88.124Z" fill="#555554"/>
<path d="M91.2206 83.9142V82.5032C91.2206 82.0915 91.0089 81.7806 90.5856 81.7806C90.4915 81.7833 90.399 81.8051 90.3134 81.8449C90.2279 81.8846 90.1511 81.9414 90.0877 82.0118C90.0243 82.0823 89.9755 82.1649 89.9443 82.2549C89.9132 82.3449 89.9002 82.4403 89.9062 82.5354V83.9142H89.2522V81.2123H89.8406L89.8829 81.579C89.9932 81.4542 90.1278 81.3537 90.2783 81.284C90.4287 81.2143 90.5917 81.1767 90.757 81.1737C91.392 81.1737 91.8852 81.6498 91.8852 82.4968V83.9142H91.2206Z" fill="#555554"/>
<path d="M94.7278 83.569C94.5961 83.7091 94.4369 83.8196 94.2605 83.8935C94.084 83.9674 93.8942 84.0029 93.7033 83.9979C92.9308 83.9979 92.2894 83.5261 92.2894 82.5697C92.2894 81.6134 92.9244 81.1437 93.7033 81.1437C93.8822 81.1379 94.0603 81.1704 94.2259 81.2391C94.3915 81.3078 94.5409 81.4113 94.6643 81.5426L94.2409 81.9843C94.0951 81.849 93.9053 81.7727 93.7075 81.7699C93.6044 81.7674 93.502 81.7865 93.4065 81.826C93.311 81.8655 93.2246 81.9245 93.1527 81.9994C93.0807 82.0743 93.0249 82.1634 92.9885 82.2611C92.9521 82.3589 92.9361 82.4632 92.9414 82.5676C92.9338 82.6711 92.9479 82.775 92.9829 82.8725C93.0179 82.9701 93.0729 83.059 93.1443 83.1334C93.2158 83.2077 93.302 83.2659 93.3972 83.3041C93.4925 83.3422 93.5947 83.3594 93.697 83.3546C93.8032 83.3598 93.9094 83.3435 94.0093 83.3067C94.1093 83.2699 94.201 83.2133 94.2791 83.1401L94.7278 83.569Z" fill="#555554"/>
<path d="M95.6887 82.8034C95.731 83.1358 96.0168 83.3781 96.4824 83.3781C96.7415 83.3816 96.9935 83.2919 97.1936 83.1251L97.6169 83.554C97.3037 83.8406 96.8937 83.9942 96.4718 83.9828C95.5553 83.9828 95.0093 83.4081 95.0093 82.544C95.0006 82.3543 95.0314 82.1649 95.0998 81.9882C95.1682 81.8114 95.2726 81.6512 95.4062 81.5181C95.5398 81.385 95.6996 81.2819 95.8752 81.2155C96.0508 81.1491 96.2382 81.121 96.4253 81.133C97.3142 81.133 97.8709 81.6905 97.7672 82.8013L95.6887 82.8034ZM97.1343 82.2502C97.092 81.9007 96.8211 81.727 96.4443 81.727C96.2796 81.7136 96.1154 81.7584 95.9796 81.8538C95.8437 81.9491 95.7447 82.0892 95.6993 82.2502H97.1343Z" fill="#555554"/>
<path d="M9.57963 51.6313H4.24584V57.2559H0.689972V38.1499C3.65319 38.1499 6.61641 38.122 9.57963 38.122C18.791 38.122 18.8164 51.6313 9.57963 51.6313ZM4.24584 48.3269H9.57963C14.1324 48.3269 14.1049 41.5615 9.57963 41.5615H4.24584V48.3269Z" fill="#555554"/>
<path d="M32.2864 53.6491H22.4273L20.8102 57.2559H16.9581L25.4244 38.1541H29.3041L37.7704 57.2559H33.8908L32.2864 53.6491ZM27.3569 42.1598L23.856 50.2932H30.8598L27.3569 42.1598Z" fill="#555554"/>
<path d="M43.1974 38.1498V53.9235H52.8934V57.2558H39.6479V38.1498H43.1974Z" fill="#555554"/>
<path d="M71.8305 43.4163L65.6924 51.7128H64.994L58.9871 43.3885V57.2794H55.4312V38.1713H59.5247L65.4236 46.3841L71.3225 38.1713H75.3906V57.273H71.8347L71.8305 43.4163Z" fill="#555554"/>
<path d="M92.1159 53.6491H82.2569L80.6398 57.2516H76.7876L85.2539 38.1498H89.1336L97.6 57.2516H93.7054L92.1159 53.6491ZM87.1864 42.1597L83.6856 50.2932H90.6872L87.1864 42.1597Z" fill="#555554"/>
<path d="M13.0064 67.9046C13.0657 71.3742 10.9745 74.8823 6.23335 74.8823H0.914368V61.1586H6.23547C10.8793 61.1629 12.9493 64.5144 13.0064 67.9046ZM3.45427 72.3927H6.2397C9.3151 72.3927 10.5343 70.1197 10.4729 67.8896C10.4157 65.7453 9.17541 63.616 6.2397 63.616H3.45427V72.3927Z" fill="#555554"/>
<path d="M24.7916 74.8823H14.6531V61.1586H24.7916V63.6674H17.1888V66.8217H24.5206V69.2341H17.1888V72.3305H24.7916V74.8823Z" fill="#555554"/>
<path d="M40.2828 72.2962H33.2029L32.0409 74.8823H29.2766L35.3512 61.1586H38.1366L44.2133 74.8823H41.4279L40.2828 72.2962ZM36.7439 64.0427L34.2273 69.8839H39.2584L36.7439 64.0427Z" fill="#555554"/>
<path d="M56.5043 73.1583C55.1116 74.5499 53.3125 75.1954 51.3589 75.1954C46.3278 75.1954 44.1985 71.6873 44.1794 68.1191C44.1604 64.5509 46.4632 60.8862 51.3589 60.8862C52.2832 60.8848 53.1986 61.0692 54.0521 61.4288C54.9056 61.7885 55.6801 62.3161 56.3307 62.9813L54.6375 64.6495C53.7547 63.8052 52.5813 63.3435 51.3674 63.3629C48.0972 63.3629 46.6855 65.8332 46.7109 68.1277C46.7363 70.4221 48.0253 72.7723 51.3674 72.7723C52.6357 72.7631 53.8532 72.2656 54.7729 71.3806L56.5043 73.1583Z" fill="#555554"/>
<path d="M68.0376 74.8823H57.8992V61.1586H68.0376V63.6674H60.4327V66.8217H67.7667V69.2341H60.4327V72.3305H68.0376V74.8823Z" fill="#555554"/>
<path d="M70.0314 74.8823V61.1586H72.5714V74.8823H70.0314Z" fill="#555554"/>
<path d="M79.0862 63.513H74.7832V61.1543H85.927V63.513H81.6409V74.878H79.0862V63.513Z" fill="#555554"/>
<path d="M97.5831 74.8823H87.4446V61.1586H97.5831V63.6696H89.9803V66.8239H97.3121V69.2363H89.9803V72.3327H97.5831V74.8823Z" fill="#555554"/>
<path d="M43.227 0.00213623H45.8346V0.111499L41.5718 6.30648L45.9616 12.6837V12.7566H43.299L40.0712 7.9619L36.8519 12.7545H34.1892V12.6816L38.5599 6.30434L34.3162 0.109353V0.00213623H36.9238L40.0712 4.75612L43.227 0.00213623Z" fill="#555554"/>
<path d="M55.9053 0.00213623H58.513V0.111499L54.2523 6.30434L58.64 12.6816V12.7545H55.9773L52.758 7.9619L49.5386 12.7545H46.876V12.6816L51.2467 6.30434L47.0136 0.109353V0.00213623H49.6212L52.7685 4.75827L55.9053 0.00213623Z" fill="#555554"/>
<path d="M15.686 31.3909C15.686 31.3909 24.5249 29.8727 27.6257 22.6442C30.5465 14.0497 24.6201 11.0197 24.6201 11.0197C24.6201 11.0197 21.9828 9.18633 19.1932 9.60662C17.6925 9.76315 17.5888 10.0248 17.538 12.2763C17.4872 14.5279 14.1261 13.2713 13.7134 12.9582C12.0582 12.3278 9.52465 8.1399 13.144 5.15498C13.5673 4.83977 16.7105 2.06499 23.0179 4.83976C30.5635 8.66311 30.9254 14.3177 30.7709 17.2512C30.8217 20.918 28.1337 25.4211 26.3769 26.8857C21.8326 31.8069 15.686 31.3909 15.686 31.3909Z" fill="url(#paint0_linear_264_350)"/>
<path d="M28.5612 7.49017C28.5612 7.49017 22.6559 0.656186 14.9558 1.76266C6.19309 3.73759 6.74975 10.4386 6.74975 10.4386C6.74975 10.4386 6.5889 13.6744 8.40282 15.8638C9.3193 17.0753 9.59444 17.0282 11.5142 15.8938C13.4339 14.7595 14.1366 18.3169 14.0901 18.838C14.4266 20.5942 12.2317 24.9751 7.82499 23.414C7.34453 23.2231 3.36111 21.9537 2.39171 15.0511C1.65514 6.53594 6.22061 3.25725 8.76898 1.85915C11.8232 -0.105063 17.0237 -0.14151 19.172 0.606863C25.6932 1.96637 28.5612 7.49017 28.5612 7.49017Z" fill="url(#paint1_linear_264_350)"/>
<path d="M1.54933 9.43723C1.54933 9.43723 -0.778904 18.2033 4.38768 24.083C10.8665 30.3788 16.0649 26.1952 16.0649 26.1952C16.0649 26.1952 18.8164 24.5376 19.6059 21.7929C20.0927 20.3497 19.9001 20.1439 17.9127 19.1532C15.9252 18.1625 18.4503 15.5979 18.9032 15.3492C20.1583 14.0904 24.9757 13.5157 26.1356 18.0939C26.2435 18.6064 27.4055 22.6699 22.2813 27.3145C15.6945 32.6561 10.475 30.6211 7.9118 29.2444C4.60358 27.7563 1.69325 23.3968 1.1133 21.1667C-1.39062 14.9074 1.54933 9.43723 1.54933 9.43723Z" fill="url(#paint2_linear_264_350)"/>
<path style="mix-blend-mode:multiply" d="M21.1658 16.5864C21.2687 16.995 21.3213 17.4149 21.3225 17.8366C21.3225 20.6735 18.9201 22.983 15.9611 22.983C13.0022 22.983 10.5977 20.6821 10.5977 17.8366C10.5991 17.4273 10.6495 17.0198 10.748 16.6229C10.3353 17.3837 10.1245 18.2401 10.1363 19.1082C10.2164 20.6192 10.8648 22.0418 11.9481 23.0835C13.0315 24.1252 14.4675 24.707 15.9611 24.7092C17.4551 24.7064 18.8912 24.1238 19.9742 23.0812C21.0572 22.0386 21.7048 20.6153 21.7839 19.1039C21.7974 18.2246 21.5844 17.3569 21.1658 16.5864Z" fill="url(#paint3_radial_264_350)"/>
<path style="mix-blend-mode:screen" opacity="0.5" d="M15.9612 24.098C14.4195 24.1056 12.9283 23.542 11.7682 22.5134C12.2899 23.1197 12.9345 23.6048 13.6581 23.9357C14.3817 24.2665 15.1673 24.4353 15.9612 24.4304C16.7548 24.4359 17.5403 24.2675 18.2637 23.9366C18.9871 23.6057 19.6312 23.1202 20.152 22.5134C18.9928 23.542 17.5022 24.1057 15.9612 24.098Z" fill="url(#paint4_linear_264_350)"/>
<path style="mix-blend-mode:screen" d="M21.3521 19.0867C21.3521 21.9901 18.8905 24.3446 15.849 24.3446C12.8074 24.3446 10.3459 21.9859 10.3459 19.0867C10.3459 16.1876 12.8074 13.8331 15.849 13.8331C18.8905 13.8331 21.3521 16.1876 21.3521 19.0867Z" fill="url(#paint5_radial_264_350)"/>
<path style="mix-blend-mode:screen" d="M19.3519 19.5006C19.3519 21.6063 17.5655 23.3132 15.3643 23.3132C13.163 23.3132 11.3766 21.5977 11.3766 19.5006C11.3766 17.4034 13.163 15.6901 15.3643 15.6901C17.5655 15.6901 19.3519 17.397 19.3519 19.5006Z" fill="url(#paint6_radial_264_350)"/>
<path style="mix-blend-mode:screen" d="M18.5921 14.1376C19.7265 16.4964 20.1033 17.7315 20.2853 19.938C21.132 17.7315 20.6028 16.2369 19.335 14.1183C18.9709 13.5093 17.7602 11.5751 16.7062 9.58517C17.2501 11.1034 18.2852 13.4986 18.5921 14.1376Z" fill="url(#paint7_linear_264_350)"/>
<path style="mix-blend-mode:screen" d="M16.0035 19.3783C15.9874 19.9318 15.7558 20.4562 15.3592 20.8372C14.9626 21.2181 14.4333 21.4244 13.8869 21.4112C13.3406 21.4244 12.8112 21.2181 12.4146 20.8372C12.018 20.4562 11.7864 19.9318 11.7703 19.3783C11.7864 18.8249 12.018 18.3004 12.4146 17.9195C12.8112 17.5386 13.3406 17.3322 13.8869 17.3455C14.4333 17.3322 14.9626 17.5386 15.3592 17.9195C15.7558 18.3004 15.9874 18.8249 16.0035 19.3783Z" fill="url(#paint8_radial_264_350)"/>
<path style="mix-blend-mode:screen" d="M12.3439 16.9874C12.0476 17.6672 11.709 18.9881 11.982 20.7722C11.6668 20.1664 11.4921 19.4958 11.4712 18.8114C11.4502 18.1269 11.5837 17.4466 11.8613 16.8223C12.5873 15.079 14.5558 11.5044 15.5865 8.86682C15.0955 10.9382 12.6466 16.2991 12.3439 16.9874Z" fill="url(#paint9_linear_264_350)"/>
<path style="mix-blend-mode:screen" d="M13.6774 18.5335C13.6774 20.8172 13.4297 21.4455 13.8022 22.3182C13.1059 21.8465 12.4709 21.1238 12.4709 18.5335C12.4709 16.8845 15.1738 11.3671 15.9379 7.85471C15.741 10.2606 13.6774 16.9789 13.6774 18.5335Z" fill="url(#paint10_linear_264_350)"/>
<path style="mix-blend-mode:multiply" d="M21.8685 18.5142C22.0527 22.0716 19.371 24.7606 15.9209 24.7435C14.3838 24.6991 12.926 24.042 11.8643 22.915C10.8025 21.788 10.2227 20.282 10.2506 18.7243C10.947 14.2899 15.4489 11.2599 16.0945 7.1192C16.9284 11.4786 21.3457 14.7466 21.8685 18.5142Z" fill="url(#paint11_linear_264_350)"/>
<defs>
<linearGradient id="paint0_linear_264_350" x1="11.3068" y1="17.5085" x2="30.8027" y2="17.5085" gradientUnits="userSpaceOnUse">
<stop stop-color="#2276B9"/>
<stop offset="0.98" stop-color="#005D9E"/>
</linearGradient>
<linearGradient id="paint1_linear_264_350" x1="23.1575" y1="-0.246584" x2="2.89519" y2="19.5991" gradientUnits="userSpaceOnUse">
<stop stop-color="#D95E33"/>
<stop offset="0.13" stop-color="#E17D26"/>
<stop offset="0.29" stop-color="#EB9F19"/>
<stop offset="0.46" stop-color="#F2BA0E"/>
<stop offset="0.64" stop-color="#F7CD06"/>
<stop offset="0.81" stop-color="#FAD802"/>
<stop offset="1" stop-color="#FBDC00"/>
</linearGradient>
<linearGradient id="paint2_linear_264_350" x1="0.103695" y1="20.1053" x2="26.3218" y2="20.1053" gradientUnits="userSpaceOnUse">
<stop stop-color="#801105"/>
<stop offset="0.26" stop-color="#DA130A"/>
</linearGradient>
<radialGradient id="paint3_radial_264_350" cx="0" cy="0" r="1" gradientUnits="userSpaceOnUse" gradientTransform="translate(16.0075 19.8124) scale(6.84504 6.93478)">
<stop offset="0.47" stop-color="white"/>
<stop offset="0.82" stop-color="#CDA051"/>
<stop offset="1" stop-color="#B57300"/>
</radialGradient>
<linearGradient id="paint4_linear_264_350" x1="13.3938" y1="23.4719" x2="18.3783" y2="23.4719" gradientUnits="userSpaceOnUse">
<stop stop-color="#743315"/>
<stop offset="0.2" stop-color="#A7690C"/>
<stop offset="0.49" stop-color="#EDB100"/>
<stop offset="0.59" stop-color="#D99C04"/>
<stop offset="0.81" stop-color="#A5660D"/>
<stop offset="1" stop-color="#743315"/>
</linearGradient>
<radialGradient id="paint5_radial_264_350" cx="0" cy="0" r="1" gradientUnits="userSpaceOnUse" gradientTransform="translate(14.8504 20.3709) scale(5.16311 5.2308)">
<stop stop-color="#F39A17"/>
<stop offset="0.04" stop-color="#E79216"/>
<stop offset="0.4" stop-color="#85540D"/>
<stop offset="0.68" stop-color="#3D2706"/>
<stop offset="0.89" stop-color="#110B02"/>
<stop offset="0.99"/>
</radialGradient>
<radialGradient id="paint6_radial_264_350" cx="0" cy="0" r="1" gradientUnits="userSpaceOnUse" gradientTransform="translate(14.3894 20.2142) scale(3.97367 4.02577)">
<stop offset="0.13" stop-color="#F39A17"/>
<stop offset="0.27" stop-color="#BE7912"/>
<stop offset="0.47" stop-color="#7B4E0C"/>
<stop offset="0.64" stop-color="#462D07"/>
<stop offset="0.79" stop-color="#201403"/>
<stop offset="0.92" stop-color="#090501"/>
<stop offset="0.99"/>
</radialGradient>
<linearGradient id="paint7_linear_264_350" x1="16.3418" y1="9.67841" x2="19.28" y2="19.882" gradientUnits="userSpaceOnUse">
<stop stop-color="#683F11"/>
<stop offset="0.57" stop-color="#2E1C08"/>
<stop offset="1"/>
</linearGradient>
<radialGradient id="paint8_radial_264_350" cx="0" cy="0" r="1" gradientUnits="userSpaceOnUse" gradientTransform="translate(12.9074 20.0899) scale(2.11904 2.14682)">
<stop offset="0.21" stop-color="#F7D18A"/>
<stop offset="0.3" stop-color="#E1BF7E"/>
<stop offset="0.49" stop-color="#A98F5F"/>
<stop offset="0.77" stop-color="#50442D"/>
<stop offset="1"/>
</radialGradient>
<linearGradient id="paint9_linear_264_350" x1="14.8267" y1="9.16703" x2="11.4907" y2="19.9975" gradientUnits="userSpaceOnUse">
<stop stop-color="#E0A43B"/>
<stop offset="0.05" stop-color="#D39A38"/>
<stop offset="0.47" stop-color="#63481A"/>
<stop offset="0.76" stop-color="#1C1407"/>
<stop offset="0.89"/>
</linearGradient>
<linearGradient id="paint10_linear_264_350" x1="16.2702" y1="8.42295" x2="12.59" y2="21.9533" gradientUnits="userSpaceOnUse">
<stop stop-color="#F7D18A"/>
<stop offset="0.22" stop-color="#B79B66"/>
<stop offset="0.68" stop-color="#342C1D"/>
<stop offset="0.89"/>
</linearGradient>
<linearGradient id="paint11_linear_264_350" x1="10.6718" y1="15.9324" x2="22.2982" y2="15.9324" gradientUnits="userSpaceOnUse">
<stop stop-color="#E6631A"/>
<stop offset="0.01" stop-color="#E6631A"/>
<stop offset="0.27" stop-color="#E6631A" stop-opacity="0.9"/>
<stop offset="0.28" stop-color="#E6631A" stop-opacity="0.88"/>
<stop offset="0.35" stop-color="#E6631A" stop-opacity="0.67"/>
<stop offset="0.42" stop-color="#E6631A" stop-opacity="0.49"/>
<stop offset="0.49" stop-color="#E6631A" stop-opacity="0.34"/>
<stop offset="0.57" stop-color="#E6631A" stop-opacity="0.22"/>
<stop offset="0.66" stop-color="#E6631A" stop-opacity="0.12"/>
<stop offset="0.75" stop-color="#E6631A" stop-opacity="0.05"/>
<stop offset="0.85" stop-color="#E6631A" stop-opacity="0.01"/>
<stop offset="1" stop-color="#E6631A" stop-opacity="0"/>
</linearGradient>
</defs>
</svg>
